<svg xmlns="http://www.w3.org/2000/svg" width="468" height="311" viewBox="0 0 468 311">
  <g id="Grupo_3646" data-name="Grupo 3646" transform="translate(-594 -823)">
    <g id="Rectángulo_1456" data-name="Rectángulo 1456" transform="translate(594 823)" fill="#fff" stroke="#cea774" stroke-width="1">
      <rect width="468" height="311" rx="23" stroke="none"/>
      <rect x="0.5" y="0.5" width="467" height="310" rx="22.5" fill="none"/>
    </g>
    <g id="Grupo_3645" data-name="Grupo 3645" transform="translate(-105 3)">
      <path id="Trazado_7465" data-name="Trazado 7465" d="M188.733,554.881H186.71a6.772,6.772,0,0,1-6.057-3.743h0a6.8,6.8,0,0,0-.96-1.431l-1.773-2.026a6.762,6.762,0,0,1-.538-.7l-1.131-1.7a6.768,6.768,0,0,1-.954-5.324l1.016-4.267a6.745,6.745,0,0,0,.184-1.568v-4.606a6.752,6.752,0,0,1,4.227-6.275c11.125-4.456,41.049-19.759,51.036-58.313a6.581,6.581,0,0,0-.082-3.559c-1.221-4.024-3.379-15.117,4.71-27.4,6.2-9.417,2.6-18.274-1.157-23.752a6.719,6.719,0,0,1,1.84-9.362c6.735-4.484,14.256-12.275.07-19.244,0,0-5.336-1.916-7.844-6.242-3.007-5.185,1.987-11.4,7.758-9.777,10.358,2.911,29.09,6.932,29.09-2.062v-8.479a6.728,6.728,0,0,1,1.678-4.459,20.976,20.976,0,0,0,4.8-9.937,6.744,6.744,0,0,1,7.385-5.441c3.52.411,7.669.4,10.754-1.107a5.955,5.955,0,0,1,1.676-.5c3.877-.629,17.456-2.939,23.439-5.357a6.583,6.583,0,0,1,2.469-.5H360.1a6.751,6.751,0,0,1,1.875.265c4.977,1.435,29.117,8.172,39.655,6.97a6.7,6.7,0,0,1,7.574,6.728q-.012.469-.041.975a6.752,6.752,0,0,0,1.344,4.538,13.958,13.958,0,0,1,2.919,11.789c-1.816,7.627,2.672,12.8,7.385,10.8a5.544,5.544,0,0,1,1.1-.365l22.981-4.536a6.773,6.773,0,0,1,7.844,4.848c.807,2.944.694,6.265-2.768,8.087,0,0-24.107,9.794-9.793,20.341,10.547,7.772,6.983,11.453,4.377,12.852a6.644,6.644,0,0,0-3.017,3.332c-1.7,4.151-3.794,12.5,2.571,19.716a6.449,6.449,0,0,1,1.081,1.748c1.847,4.311,7.966,20.08,2.144,27.519-6.224,7.953,38.658,56.22,51.89,61.752a6.761,6.761,0,0,1,3.983,4.645c1.849,7.635,3.573,23.064-11.983,24.949a6.594,6.594,0,0,1-4.625-1.219c-4.83-3.468-19.135-11.761-39.388-6.154a6.6,6.6,0,0,1-2.92.118c-6.754-1.2-34.076-5.569-47.661-.091a6.878,6.878,0,0,1-3.893.329c-4.892-.957-17.521-3.607-35.146-8.593a6.782,6.782,0,0,0-3.177-.129,21.666,21.666,0,0,0-10.163,4.9,6.676,6.676,0,0,1-8.1.617,67.127,67.127,0,0,1-5.587-4.117,6.719,6.719,0,0,0-3.479-1.461c-3.814-.419-12.591.158-28.692,8.685a6.849,6.849,0,0,1-2.132.716c-3.83.609-16.1,2.235-20.987-1.03a6.669,6.669,0,0,0-2.685-.986c-6.083-.962-25.692-3.555-37.319.824a6.756,6.756,0,0,1-4.587.085c-5.962-2.053-22.394-5.967-37.694,6.188A6.831,6.831,0,0,1,188.733,554.881Z" transform="translate(585.982 512.255)" fill="#cd8b5d"/>
      <g id="Rectángulo_1455" data-name="Rectángulo 1455" transform="translate(861 894)" fill="none" stroke="#fff" stroke-width="1">
        <rect width="130" height="124" stroke="none"/>
        <rect x="0.5" y="0.5" width="129" height="123" fill="none"/>
      </g>
      <path id="Trazado_7467" data-name="Trazado 7467" d="M6.688.192a6.433,6.433,0,0,1-3.1-.744A5.552,5.552,0,0,1,1.416-2.616,5.687,5.687,0,0,1,.624-5.6a5.687,5.687,0,0,1,.792-2.984,5.552,5.552,0,0,1,2.176-2.064A6.467,6.467,0,0,1,6.7-11.392a6.528,6.528,0,0,1,2.632.512,5.272,5.272,0,0,1,1.976,1.472L9.648-7.872A3.578,3.578,0,0,0,6.832-9.184a3.739,3.739,0,0,0-1.856.456A3.242,3.242,0,0,0,3.7-7.456,3.739,3.739,0,0,0,3.248-5.6,3.739,3.739,0,0,0,3.7-3.744,3.242,3.242,0,0,0,4.976-2.472a3.739,3.739,0,0,0,1.856.456A3.561,3.561,0,0,0,9.648-3.344l1.664,1.536A5.187,5.187,0,0,1,9.328-.32,6.585,6.585,0,0,1,6.688.192Zm8.576-7.664a2.776,2.776,0,0,1,1.208-.944,4.483,4.483,0,0,1,1.752-.32v2.3q-.416-.032-.56-.032a2.288,2.288,0,0,0-1.68.6,2.425,2.425,0,0,0-.608,1.8V0h-2.5V-8.608h2.384ZM28.448-8.608V0H26.08V-1.024A3.31,3.31,0,0,1,24.9-.168a3.725,3.725,0,0,1-1.488.3A3.666,3.666,0,0,1,20.72-.848a3.891,3.891,0,0,1-.992-2.9V-8.608h2.5v4.5q0,2.08,1.744,2.08a1.875,1.875,0,0,0,1.44-.584,2.464,2.464,0,0,0,.544-1.736V-8.608Zm7.408-.128a4.387,4.387,0,0,1,2.184.552,3.964,3.964,0,0,1,1.544,1.552,4.686,4.686,0,0,1,.56,2.328,4.686,4.686,0,0,1-.56,2.328A3.964,3.964,0,0,1,38.04-.424a4.387,4.387,0,0,1-2.184.552,3.324,3.324,0,0,1-2.592-1.04V3.1h-2.5V-8.608h2.384v.992A3.31,3.31,0,0,1,35.856-8.736ZM35.424-1.92A2.079,2.079,0,0,0,37-2.568,2.416,2.416,0,0,0,37.616-4.3,2.416,2.416,0,0,0,37-6.04a2.079,2.079,0,0,0-1.576-.648,2.079,2.079,0,0,0-1.576.648A2.416,2.416,0,0,0,33.232-4.3a2.416,2.416,0,0,0,.616,1.736A2.079,2.079,0,0,0,35.424-1.92ZM45.9.128a5.162,5.162,0,0,1-2.44-.568,4.222,4.222,0,0,1-1.688-1.576A4.342,4.342,0,0,1,41.168-4.3a4.342,4.342,0,0,1,.608-2.288,4.223,4.223,0,0,1,1.688-1.576,5.162,5.162,0,0,1,2.44-.568,5.114,5.114,0,0,1,2.432.568,4.236,4.236,0,0,1,1.68,1.576A4.342,4.342,0,0,1,50.624-4.3a4.342,4.342,0,0,1-.608,2.288A4.236,4.236,0,0,1,48.336-.44,5.114,5.114,0,0,1,45.9.128Zm0-2.048a2.079,2.079,0,0,0,1.576-.648A2.416,2.416,0,0,0,48.1-4.3,2.416,2.416,0,0,0,47.48-6.04,2.079,2.079,0,0,0,45.9-6.688a2.1,2.1,0,0,0-1.584.648A2.4,2.4,0,0,0,43.7-4.3a2.4,2.4,0,0,0,.624,1.736A2.1,2.1,0,0,0,45.9-1.92Zm.672-10.1h2.688l-2.9,2.3H44.416ZM57.52-8.736a3.542,3.542,0,0,1,2.584.96,3.807,3.807,0,0,1,.984,2.848V0h-2.5V-4.544a2.244,2.244,0,0,0-.448-1.528,1.643,1.643,0,0,0-1.3-.5,1.986,1.986,0,0,0-1.5.584,2.418,2.418,0,0,0-.56,1.736V0h-2.5V-8.608h2.384V-7.6A3.31,3.31,0,0,1,55.9-8.44,4.292,4.292,0,0,1,57.52-8.736Z" transform="translate(895 961)" fill="#fff"/>
      <path id="Trazado_7470" data-name="Trazado 7470" d="M6.688.192a6.433,6.433,0,0,1-3.1-.744A5.552,5.552,0,0,1,1.416-2.616,5.687,5.687,0,0,1,.624-5.6a5.687,5.687,0,0,1,.792-2.984,5.552,5.552,0,0,1,2.176-2.064A6.467,6.467,0,0,1,6.7-11.392a6.528,6.528,0,0,1,2.632.512,5.272,5.272,0,0,1,1.976,1.472L9.648-7.872A3.578,3.578,0,0,0,6.832-9.184a3.739,3.739,0,0,0-1.856.456A3.242,3.242,0,0,0,3.7-7.456,3.739,3.739,0,0,0,3.248-5.6,3.739,3.739,0,0,0,3.7-3.744,3.242,3.242,0,0,0,4.976-2.472a3.739,3.739,0,0,0,1.856.456A3.561,3.561,0,0,0,9.648-3.344l1.664,1.536A5.187,5.187,0,0,1,9.328-.32,6.585,6.585,0,0,1,6.688.192Zm14.64-8.8V0H18.96V-1.024a3.31,3.31,0,0,1-1.184.856,3.725,3.725,0,0,1-1.488.3A3.666,3.666,0,0,1,13.6-.848a3.891,3.891,0,0,1-.992-2.9V-8.608h2.5v4.5q0,2.08,1.744,2.08a1.875,1.875,0,0,0,1.44-.584,2.464,2.464,0,0,0,.544-1.736V-8.608ZM32.08-4.272q0,.048-.048.672H25.52a2.028,2.028,0,0,0,.832,1.264,2.756,2.756,0,0,0,1.632.464,3.3,3.3,0,0,0,1.192-.2,2.887,2.887,0,0,0,.968-.632l1.328,1.44A4.463,4.463,0,0,1,27.92.128,5.619,5.619,0,0,1,25.344-.44a4.164,4.164,0,0,1-1.728-1.576A4.342,4.342,0,0,1,23.008-4.3a4.4,4.4,0,0,1,.6-2.28,4.2,4.2,0,0,1,1.648-1.584A4.839,4.839,0,0,1,27.6-8.736a4.8,4.8,0,0,1,2.288.544A3.971,3.971,0,0,1,31.5-6.632,4.652,4.652,0,0,1,32.08-4.272ZM27.616-6.848a2.15,2.15,0,0,0-1.424.48,2.043,2.043,0,0,0-.7,1.312h4.24a2.064,2.064,0,0,0-.7-1.3A2.1,2.1,0,0,0,27.616-6.848Zm6.128-5.024h2.5V0h-2.5Zm4.816,0h2.5V0h-2.5Zm8.912,12a5.162,5.162,0,0,1-2.44-.568,4.222,4.222,0,0,1-1.688-1.576A4.342,4.342,0,0,1,42.736-4.3a4.342,4.342,0,0,1,.608-2.288,4.223,4.223,0,0,1,1.688-1.576,5.162,5.162,0,0,1,2.44-.568,5.114,5.114,0,0,1,2.432.568,4.236,4.236,0,0,1,1.68,1.576A4.342,4.342,0,0,1,52.192-4.3a4.342,4.342,0,0,1-.608,2.288A4.236,4.236,0,0,1,49.9-.44,5.114,5.114,0,0,1,47.472.128Zm0-2.048a2.079,2.079,0,0,0,1.576-.648A2.416,2.416,0,0,0,49.664-4.3a2.416,2.416,0,0,0-.616-1.736,2.079,2.079,0,0,0-1.576-.648,2.1,2.1,0,0,0-1.584.648A2.4,2.4,0,0,0,45.264-4.3a2.4,2.4,0,0,0,.624,1.736A2.1,2.1,0,0,0,47.472-1.92Z" transform="translate(899 869)" fill="#fff"/>
      <path id="Trazado_7468" data-name="Trazado 7468" d="M3.92-9.12v2.96H9.1v2.08H3.92V0H1.328V-11.2H9.792v2.08Zm10.688.384a4.48,4.48,0,0,1,3.072.952,3.643,3.643,0,0,1,1.072,2.872V0H16.416V-1.072a2.781,2.781,0,0,1-2.624,1.2,4.073,4.073,0,0,1-1.72-.336,2.565,2.565,0,0,1-1.112-.928,2.415,2.415,0,0,1-.384-1.344,2.243,2.243,0,0,1,.9-1.888,4.607,4.607,0,0,1,2.792-.688h1.984a1.591,1.591,0,0,0-.5-1.256,2.185,2.185,0,0,0-1.488-.44,4.345,4.345,0,0,0-1.352.216,3.577,3.577,0,0,0-1.128.584L10.9-7.7a5.406,5.406,0,0,1,1.688-.768A7.562,7.562,0,0,1,14.608-8.736Zm-.192,7.184a2.174,2.174,0,0,0,1.136-.3,1.62,1.62,0,0,0,.7-.872V-3.6H14.544q-1.536,0-1.536,1.008a.9.9,0,0,0,.376.76A1.694,1.694,0,0,0,14.416-1.552Zm6.592-10.32h2.5V0h-2.5Zm13.584,0V0H32.208V-.992A3.292,3.292,0,0,1,29.52.128a4.47,4.47,0,0,1-2.2-.544,3.9,3.9,0,0,1-1.544-1.552,4.731,4.731,0,0,1-.56-2.336,4.731,4.731,0,0,1,.56-2.336A3.9,3.9,0,0,1,27.32-8.192a4.47,4.47,0,0,1,2.2-.544A3.274,3.274,0,0,1,32.1-7.7v-4.176ZM29.952-1.92a2.086,2.086,0,0,0,1.568-.648A2.4,2.4,0,0,0,32.144-4.3,2.4,2.4,0,0,0,31.52-6.04a2.086,2.086,0,0,0-1.568-.648,2.1,2.1,0,0,0-1.584.648A2.4,2.4,0,0,0,27.744-4.3a2.4,2.4,0,0,0,.624,1.736A2.1,2.1,0,0,0,29.952-1.92ZM40.368-8.736a4.48,4.48,0,0,1,3.072.952,3.643,3.643,0,0,1,1.072,2.872V0H42.176V-1.072a2.781,2.781,0,0,1-2.624,1.2,4.072,4.072,0,0,1-1.72-.336,2.565,2.565,0,0,1-1.112-.928,2.415,2.415,0,0,1-.384-1.344,2.243,2.243,0,0,1,.9-1.888,4.607,4.607,0,0,1,2.792-.688h1.984a1.591,1.591,0,0,0-.5-1.256,2.185,2.185,0,0,0-1.488-.44,4.345,4.345,0,0,0-1.352.216,3.577,3.577,0,0,0-1.128.584l-.9-1.744a5.406,5.406,0,0,1,1.688-.768A7.562,7.562,0,0,1,40.368-8.736Zm-.192,7.184a2.174,2.174,0,0,0,1.136-.3,1.62,1.62,0,0,0,.7-.872V-3.6H40.3q-1.536,0-1.536,1.008a.9.9,0,0,0,.376.76A1.694,1.694,0,0,0,40.176-1.552Z" transform="translate(844.5 982.5) rotate(-90)" fill="#fff"/>
      <path id="Trazado_7466" data-name="Trazado 7466" d="M3.92-9.12v2.96H9.1v2.08H3.92V0H1.328V-11.2H9.792v2.08Zm10.688.384a4.48,4.48,0,0,1,3.072.952,3.643,3.643,0,0,1,1.072,2.872V0H16.416V-1.072a2.781,2.781,0,0,1-2.624,1.2,4.073,4.073,0,0,1-1.72-.336,2.565,2.565,0,0,1-1.112-.928,2.415,2.415,0,0,1-.384-1.344,2.243,2.243,0,0,1,.9-1.888,4.607,4.607,0,0,1,2.792-.688h1.984a1.591,1.591,0,0,0-.5-1.256,2.185,2.185,0,0,0-1.488-.44,4.345,4.345,0,0,0-1.352.216,3.577,3.577,0,0,0-1.128.584L10.9-7.7a5.406,5.406,0,0,1,1.688-.768A7.562,7.562,0,0,1,14.608-8.736Zm-.192,7.184a2.174,2.174,0,0,0,1.136-.3,1.62,1.62,0,0,0,.7-.872V-3.6H14.544q-1.536,0-1.536,1.008a.9.9,0,0,0,.376.76A1.694,1.694,0,0,0,14.416-1.552Zm6.592-10.32h2.5V0h-2.5Zm13.584,0V0H32.208V-.992A3.292,3.292,0,0,1,29.52.128a4.47,4.47,0,0,1-2.2-.544,3.9,3.9,0,0,1-1.544-1.552,4.731,4.731,0,0,1-.56-2.336,4.731,4.731,0,0,1,.56-2.336A3.9,3.9,0,0,1,27.32-8.192a4.47,4.47,0,0,1,2.2-.544A3.274,3.274,0,0,1,32.1-7.7v-4.176ZM29.952-1.92a2.086,2.086,0,0,0,1.568-.648A2.4,2.4,0,0,0,32.144-4.3,2.4,2.4,0,0,0,31.52-6.04a2.086,2.086,0,0,0-1.568-.648,2.1,2.1,0,0,0-1.584.648A2.4,2.4,0,0,0,27.744-4.3a2.4,2.4,0,0,0,.624,1.736A2.1,2.1,0,0,0,29.952-1.92ZM40.368-8.736a4.48,4.48,0,0,1,3.072.952,3.643,3.643,0,0,1,1.072,2.872V0H42.176V-1.072a2.781,2.781,0,0,1-2.624,1.2,4.072,4.072,0,0,1-1.72-.336,2.565,2.565,0,0,1-1.112-.928,2.415,2.415,0,0,1-.384-1.344,2.243,2.243,0,0,1,.9-1.888,4.607,4.607,0,0,1,2.792-.688h1.984a1.591,1.591,0,0,0-.5-1.256,2.185,2.185,0,0,0-1.488-.44,4.345,4.345,0,0,0-1.352.216,3.577,3.577,0,0,0-1.128.584l-.9-1.744a5.406,5.406,0,0,1,1.688-.768A7.562,7.562,0,0,1,40.368-8.736Zm-.192,7.184a2.174,2.174,0,0,0,1.136-.3,1.62,1.62,0,0,0,.7-.872V-3.6H40.3q-1.536,0-1.536,1.008a.9.9,0,0,0,.376.76A1.694,1.694,0,0,0,40.176-1.552Z" transform="translate(1012.5 982.5) rotate(-90)" fill="#fff"/>
      <path id="Trazado_7469" data-name="Trazado 7469" d="M6.688.192a6.433,6.433,0,0,1-3.1-.744A5.552,5.552,0,0,1,1.416-2.616,5.687,5.687,0,0,1,.624-5.6a5.687,5.687,0,0,1,.792-2.984,5.552,5.552,0,0,1,2.176-2.064A6.467,6.467,0,0,1,6.7-11.392a6.528,6.528,0,0,1,2.632.512,5.272,5.272,0,0,1,1.976,1.472L9.648-7.872A3.578,3.578,0,0,0,6.832-9.184a3.739,3.739,0,0,0-1.856.456A3.242,3.242,0,0,0,3.7-7.456,3.739,3.739,0,0,0,3.248-5.6,3.739,3.739,0,0,0,3.7-3.744,3.242,3.242,0,0,0,4.976-2.472a3.739,3.739,0,0,0,1.856.456A3.561,3.561,0,0,0,9.648-3.344l1.664,1.536A5.187,5.187,0,0,1,9.328-.32,6.585,6.585,0,0,1,6.688.192ZM16.672.128a5.162,5.162,0,0,1-2.44-.568,4.222,4.222,0,0,1-1.688-1.576A4.342,4.342,0,0,1,11.936-4.3a4.342,4.342,0,0,1,.608-2.288,4.222,4.222,0,0,1,1.688-1.576,5.162,5.162,0,0,1,2.44-.568,5.114,5.114,0,0,1,2.432.568,4.236,4.236,0,0,1,1.68,1.576A4.342,4.342,0,0,1,21.392-4.3a4.342,4.342,0,0,1-.608,2.288A4.236,4.236,0,0,1,19.1-.44,5.114,5.114,0,0,1,16.672.128Zm0-2.048a2.079,2.079,0,0,0,1.576-.648A2.416,2.416,0,0,0,18.864-4.3a2.416,2.416,0,0,0-.616-1.736,2.079,2.079,0,0,0-1.576-.648,2.1,2.1,0,0,0-1.584.648A2.4,2.4,0,0,0,14.464-4.3a2.4,2.4,0,0,0,.624,1.736A2.1,2.1,0,0,0,16.672-1.92Zm6.384-9.952h2.5V0h-2.5Zm8.288,3.136a4.48,4.48,0,0,1,3.072.952,3.643,3.643,0,0,1,1.072,2.872V0H33.152V-1.072a2.781,2.781,0,0,1-2.624,1.2,4.073,4.073,0,0,1-1.72-.336A2.565,2.565,0,0,1,27.7-1.136a2.415,2.415,0,0,1-.384-1.344,2.243,2.243,0,0,1,.9-1.888,4.607,4.607,0,0,1,2.792-.688h1.984a1.591,1.591,0,0,0-.5-1.256,2.185,2.185,0,0,0-1.488-.44,4.345,4.345,0,0,0-1.352.216,3.577,3.577,0,0,0-1.128.584l-.9-1.744a5.406,5.406,0,0,1,1.688-.768A7.562,7.562,0,0,1,31.344-8.736Zm-.192,7.184a2.174,2.174,0,0,0,1.136-.3,1.62,1.62,0,0,0,.7-.872V-3.6H31.28q-1.536,0-1.536,1.008a.9.9,0,0,0,.376.76A1.694,1.694,0,0,0,31.152-1.552Z" transform="translate(907 1040)" fill="#fff"/>
      <path id="Trazado_7471" data-name="Trazado 7471" d="M10-2.08V0H1.328V-11.2H9.792v2.08H3.9v2.432H9.1v2.016H3.9V-2.08ZM14.72.128a8.362,8.362,0,0,1-2.1-.264A5.476,5.476,0,0,1,10.992-.8l.832-1.792a5.236,5.236,0,0,0,1.392.6,5.834,5.834,0,0,0,1.6.232q1.584,0,1.584-.784a.555.555,0,0,0-.432-.528,6.4,6.4,0,0,0-1.328-.272A12.811,12.811,0,0,1,12.9-3.712,2.706,2.706,0,0,1,11.7-4.448a2.093,2.093,0,0,1-.5-1.5A2.356,2.356,0,0,1,11.672-7.4a3.038,3.038,0,0,1,1.376-.984,5.877,5.877,0,0,1,2.136-.352,8.383,8.383,0,0,1,1.816.2,5.076,5.076,0,0,1,1.5.552l-.832,1.776a4.967,4.967,0,0,0-2.48-.64,2.523,2.523,0,0,0-1.2.224.659.659,0,0,0-.4.576.572.572,0,0,0,.432.56,7.648,7.648,0,0,0,1.376.3,14.729,14.729,0,0,1,1.728.376,2.6,2.6,0,0,1,1.168.728,2.066,2.066,0,0,1,.5,1.472,2.273,2.273,0,0,1-.48,1.424,3.064,3.064,0,0,1-1.4.968A6.237,6.237,0,0,1,14.72.128ZM25.872-.416a2.566,2.566,0,0,1-.9.408A4.571,4.571,0,0,1,23.84.128a3.351,3.351,0,0,1-2.376-.784,3,3,0,0,1-.84-2.3V-6.5H19.3v-1.92h1.328v-2.1h2.5v2.1h2.144V-6.5H23.12v3.5a1.175,1.175,0,0,0,.28.84,1.038,1.038,0,0,0,.792.3,1.6,1.6,0,0,0,1.008-.32ZM27.28-8.608h2.5V0h-2.5Zm1.248-1.2a1.583,1.583,0,0,1-1.12-.4,1.3,1.3,0,0,1-.432-.992,1.3,1.3,0,0,1,.432-.992,1.583,1.583,0,0,1,1.12-.4,1.623,1.623,0,0,1,1.12.384,1.231,1.231,0,0,1,.432.96,1.359,1.359,0,0,1-.432,1.032A1.565,1.565,0,0,1,28.528-9.808ZM34.48-7.472a2.776,2.776,0,0,1,1.208-.944,4.484,4.484,0,0,1,1.752-.32v2.3q-.416-.032-.56-.032a2.288,2.288,0,0,0-1.68.6,2.425,2.425,0,0,0-.608,1.8V0H32.1V-8.608H34.48Zm7.872-1.264a4.48,4.48,0,0,1,3.072.952A3.643,3.643,0,0,1,46.5-4.912V0H44.16V-1.072a2.781,2.781,0,0,1-2.624,1.2,4.072,4.072,0,0,1-1.72-.336A2.565,2.565,0,0,1,38.7-1.136,2.415,2.415,0,0,1,38.32-2.48a2.243,2.243,0,0,1,.9-1.888,4.607,4.607,0,0,1,2.792-.688H44a1.591,1.591,0,0,0-.5-1.256,2.185,2.185,0,0,0-1.488-.44,4.345,4.345,0,0,0-1.352.216,3.577,3.577,0,0,0-1.128.584L38.64-7.7a5.406,5.406,0,0,1,1.688-.768A7.562,7.562,0,0,1,42.352-8.736ZM42.16-1.552a2.174,2.174,0,0,0,1.136-.3A1.62,1.62,0,0,0,44-2.72V-3.6H42.288q-1.536,0-1.536,1.008a.9.9,0,0,0,.376.76A1.694,1.694,0,0,0,42.16-1.552Zm8.976-5.92a2.776,2.776,0,0,1,1.208-.944,4.484,4.484,0,0,1,1.752-.32v2.3q-.416-.032-.56-.032a2.288,2.288,0,0,0-1.68.6,2.425,2.425,0,0,0-.608,1.8V0h-2.5V-8.608h2.384ZM70.544,0l-.016-6.72-3.3,5.536H66.064l-3.28-5.392V0H60.352V-11.2H62.5l4.192,6.96,4.128-6.96h2.128L72.976,0Zm8.384-8.736A4.48,4.48,0,0,1,82-7.784a3.643,3.643,0,0,1,1.072,2.872V0H80.736V-1.072a2.781,2.781,0,0,1-2.624,1.2,4.073,4.073,0,0,1-1.72-.336,2.565,2.565,0,0,1-1.112-.928A2.415,2.415,0,0,1,74.9-2.48a2.243,2.243,0,0,1,.9-1.888,4.607,4.607,0,0,1,2.792-.688h1.984a1.591,1.591,0,0,0-.5-1.256,2.185,2.185,0,0,0-1.488-.44,4.345,4.345,0,0,0-1.352.216,3.577,3.577,0,0,0-1.128.584l-.9-1.744A5.406,5.406,0,0,1,76.9-8.464,7.562,7.562,0,0,1,78.928-8.736Zm-.192,7.184a2.174,2.174,0,0,0,1.136-.3,1.62,1.62,0,0,0,.7-.872V-3.6H78.864q-1.536,0-1.536,1.008a.9.9,0,0,0,.376.76A1.694,1.694,0,0,0,78.736-1.552ZM90.88-.416a2.566,2.566,0,0,1-.9.408,4.571,4.571,0,0,1-1.128.136,3.351,3.351,0,0,1-2.376-.784,3,3,0,0,1-.84-2.3V-6.5H84.3v-1.92h1.328v-2.1h2.5v2.1h2.144V-6.5H88.128v3.5a1.175,1.175,0,0,0,.28.84,1.038,1.038,0,0,0,.792.3,1.6,1.6,0,0,0,1.008-.32Zm9.568-3.856q0,.048-.048.672H93.888a2.028,2.028,0,0,0,.832,1.264,2.756,2.756,0,0,0,1.632.464,3.3,3.3,0,0,0,1.192-.2,2.887,2.887,0,0,0,.968-.632l1.328,1.44A4.463,4.463,0,0,1,96.288.128,5.619,5.619,0,0,1,93.712-.44a4.164,4.164,0,0,1-1.728-1.576A4.342,4.342,0,0,1,91.376-4.3a4.4,4.4,0,0,1,.6-2.28,4.2,4.2,0,0,1,1.648-1.584,4.839,4.839,0,0,1,2.344-.568,4.8,4.8,0,0,1,2.288.544,3.971,3.971,0,0,1,1.608,1.56A4.652,4.652,0,0,1,100.448-4.272ZM95.984-6.848a2.15,2.15,0,0,0-1.424.48,2.043,2.043,0,0,0-.7,1.312H98.1a2.064,2.064,0,0,0-.7-1.3A2.1,2.1,0,0,0,95.984-6.848Zm8.512-.624a2.776,2.776,0,0,1,1.208-.944,4.483,4.483,0,0,1,1.752-.32v2.3q-.416-.032-.56-.032a2.288,2.288,0,0,0-1.68.6,2.425,2.425,0,0,0-.608,1.8V0h-2.5V-8.608H104.5Zm4.448-1.136h2.5V0h-2.5Zm1.248-1.2a1.583,1.583,0,0,1-1.12-.4,1.3,1.3,0,0,1-.432-.992,1.3,1.3,0,0,1,.432-.992,1.583,1.583,0,0,1,1.12-.4,1.623,1.623,0,0,1,1.12.384,1.231,1.231,0,0,1,.432.96,1.359,1.359,0,0,1-.432,1.032A1.565,1.565,0,0,1,110.192-9.808Zm7.04,1.072a4.48,4.48,0,0,1,3.072.952,3.643,3.643,0,0,1,1.072,2.872V0H119.04V-1.072a2.781,2.781,0,0,1-2.624,1.2,4.073,4.073,0,0,1-1.72-.336,2.565,2.565,0,0,1-1.112-.928A2.415,2.415,0,0,1,113.2-2.48a2.243,2.243,0,0,1,.9-1.888,4.607,4.607,0,0,1,2.792-.688h1.984a1.591,1.591,0,0,0-.5-1.256,2.185,2.185,0,0,0-1.488-.44,4.345,4.345,0,0,0-1.352.216,3.577,3.577,0,0,0-1.128.584l-.9-1.744a5.406,5.406,0,0,1,1.688-.768A7.562,7.562,0,0,1,117.232-8.736Zm-.192,7.184a2.174,2.174,0,0,0,1.136-.3,1.62,1.62,0,0,0,.7-.872V-3.6h-1.712q-1.536,0-1.536,1.008a.9.9,0,0,0,.376.76A1.694,1.694,0,0,0,117.04-1.552Zm6.592-10.32h2.5V0h-2.5Z" transform="translate(871 1107)" fill="#6a6a6a"/>
      <line id="Línea_123" data-name="Línea 123" x2="267" transform="translate(792.5 1086.5)" fill="none" stroke="#707070" stroke-width="1"/>
      <path id="Polígono_3" data-name="Polígono 3" d="M6.5,0,13,11H0Z" transform="translate(783 1093) rotate(-90)" fill="#645959"/>
      <path id="Polígono_4" data-name="Polígono 4" d="M6.5,0,13,11H0Z" transform="translate(1062 1080) rotate(90)" fill="#645959"/>
    </g>
  </g>
</svg>
