<svg xmlns="http://www.w3.org/2000/svg" width="362" height="311" viewBox="0 0 362 311">
  <g id="Grupo_3650" data-name="Grupo 3650" transform="translate(-110 -1297)">
    <g id="Rectángulo_1459" data-name="Rectángulo 1459" transform="translate(110 1297)" fill="#fff" stroke="#cea774" stroke-width="1">
      <rect width="362" height="311" rx="23" stroke="none"/>
      <rect x="0.5" y="0.5" width="361" height="310" rx="22.5" fill="none"/>
    </g>
    <g id="Grupo_3649" data-name="Grupo 3649" transform="translate(-374 -8)">
      <rect id="Rectángulo_1458" data-name="Rectángulo 1458" width="284" height="265" rx="14" transform="translate(522 1334)" fill="#e5e6e7"/>
      <rect id="Rectángulo_1457" data-name="Rectángulo 1457" width="312" height="27" rx="13.5" transform="translate(509 1320)" fill="#d0d2d4"/>
      <path id="Trazado_7473" data-name="Trazado 7473" d="M8.464,0,6.3-3.12H3.92V0H1.328V-11.2H6.176a6.222,6.222,0,0,1,2.584.5A3.839,3.839,0,0,1,10.448-9.3a3.879,3.879,0,0,1,.592,2.16,3.8,3.8,0,0,1-.6,2.152A3.8,3.8,0,0,1,8.736-3.6L11.248,0ZM8.416-7.136a1.774,1.774,0,0,0-.608-1.448,2.722,2.722,0,0,0-1.776-.5H3.92v3.9H6.032A2.692,2.692,0,0,0,7.808-5.7,1.779,1.779,0,0,0,8.416-7.136ZM17.008.128a5.162,5.162,0,0,1-2.44-.568A4.222,4.222,0,0,1,12.88-2.016,4.342,4.342,0,0,1,12.272-4.3a4.342,4.342,0,0,1,.608-2.288,4.222,4.222,0,0,1,1.688-1.576,5.162,5.162,0,0,1,2.44-.568,5.114,5.114,0,0,1,2.432.568,4.236,4.236,0,0,1,1.68,1.576A4.342,4.342,0,0,1,21.728-4.3a4.342,4.342,0,0,1-.608,2.288A4.236,4.236,0,0,1,19.44-.44,5.114,5.114,0,0,1,17.008.128Zm0-2.048a2.079,2.079,0,0,0,1.576-.648A2.416,2.416,0,0,0,19.2-4.3a2.416,2.416,0,0,0-.616-1.736,2.079,2.079,0,0,0-1.576-.648,2.1,2.1,0,0,0-1.584.648A2.4,2.4,0,0,0,14.8-4.3a2.4,2.4,0,0,0,.624,1.736A2.1,2.1,0,0,0,17.008-1.92Zm6.384-9.952h2.5V0h-2.5Zm4.816,0h2.5V0h-2.5Zm8.912,12A5.162,5.162,0,0,1,34.68-.44a4.222,4.222,0,0,1-1.688-1.576A4.342,4.342,0,0,1,32.384-4.3a4.342,4.342,0,0,1,.608-2.288A4.222,4.222,0,0,1,34.68-8.168a5.162,5.162,0,0,1,2.44-.568,5.114,5.114,0,0,1,2.432.568,4.236,4.236,0,0,1,1.68,1.576A4.342,4.342,0,0,1,41.84-4.3a4.342,4.342,0,0,1-.608,2.288A4.236,4.236,0,0,1,39.552-.44,5.114,5.114,0,0,1,37.12.128Zm0-2.048A2.079,2.079,0,0,0,38.7-2.568,2.416,2.416,0,0,0,39.312-4.3,2.416,2.416,0,0,0,38.7-6.04a2.079,2.079,0,0,0-1.576-.648,2.1,2.1,0,0,0-1.584.648A2.4,2.4,0,0,0,34.912-4.3a2.4,2.4,0,0,0,.624,1.736A2.1,2.1,0,0,0,37.12-1.92Z" transform="translate(636 1339)" fill="#6a6a6a"/>
      <path id="Trazado_7475" data-name="Trazado 7475" d="M10-2.08V0H1.328V-11.2H9.792v2.08H3.9v2.432H9.1v2.016H3.9V-2.08ZM14.72.128a8.362,8.362,0,0,1-2.1-.264A5.476,5.476,0,0,1,10.992-.8l.832-1.792a5.236,5.236,0,0,0,1.392.6,5.834,5.834,0,0,0,1.6.232q1.584,0,1.584-.784a.555.555,0,0,0-.432-.528,6.4,6.4,0,0,0-1.328-.272A12.811,12.811,0,0,1,12.9-3.712,2.706,2.706,0,0,1,11.7-4.448a2.093,2.093,0,0,1-.5-1.5A2.356,2.356,0,0,1,11.672-7.4a3.038,3.038,0,0,1,1.376-.984,5.877,5.877,0,0,1,2.136-.352,8.383,8.383,0,0,1,1.816.2,5.076,5.076,0,0,1,1.5.552l-.832,1.776a4.967,4.967,0,0,0-2.48-.64,2.523,2.523,0,0,0-1.2.224.659.659,0,0,0-.4.576.572.572,0,0,0,.432.56,7.648,7.648,0,0,0,1.376.3,14.729,14.729,0,0,1,1.728.376,2.6,2.6,0,0,1,1.168.728,2.066,2.066,0,0,1,.5,1.472,2.273,2.273,0,0,1-.48,1.424,3.064,3.064,0,0,1-1.4.968A6.237,6.237,0,0,1,14.72.128ZM25.872-.416a2.566,2.566,0,0,1-.9.408A4.571,4.571,0,0,1,23.84.128a3.351,3.351,0,0,1-2.376-.784,3,3,0,0,1-.84-2.3V-6.5H19.3v-1.92h1.328v-2.1h2.5v2.1h2.144V-6.5H23.12v3.5a1.175,1.175,0,0,0,.28.84,1.038,1.038,0,0,0,.792.3,1.6,1.6,0,0,0,1.008-.32ZM27.28-8.608h2.5V0h-2.5Zm1.248-1.2a1.583,1.583,0,0,1-1.12-.4,1.3,1.3,0,0,1-.432-.992,1.3,1.3,0,0,1,.432-.992,1.583,1.583,0,0,1,1.12-.4,1.623,1.623,0,0,1,1.12.384,1.231,1.231,0,0,1,.432.96,1.359,1.359,0,0,1-.432,1.032A1.565,1.565,0,0,1,28.528-9.808ZM34.48-7.472a2.776,2.776,0,0,1,1.208-.944,4.484,4.484,0,0,1,1.752-.32v2.3q-.416-.032-.56-.032a2.288,2.288,0,0,0-1.68.6,2.425,2.425,0,0,0-.608,1.8V0H32.1V-8.608H34.48Zm7.872-1.264a4.48,4.48,0,0,1,3.072.952A3.643,3.643,0,0,1,46.5-4.912V0H44.16V-1.072a2.781,2.781,0,0,1-2.624,1.2,4.072,4.072,0,0,1-1.72-.336A2.565,2.565,0,0,1,38.7-1.136,2.415,2.415,0,0,1,38.32-2.48a2.243,2.243,0,0,1,.9-1.888,4.607,4.607,0,0,1,2.792-.688H44a1.591,1.591,0,0,0-.5-1.256,2.185,2.185,0,0,0-1.488-.44,4.345,4.345,0,0,0-1.352.216,3.577,3.577,0,0,0-1.128.584L38.64-7.7a5.406,5.406,0,0,1,1.688-.768A7.562,7.562,0,0,1,42.352-8.736ZM42.16-1.552a2.174,2.174,0,0,0,1.136-.3A1.62,1.62,0,0,0,44-2.72V-3.6H42.288q-1.536,0-1.536,1.008a.9.9,0,0,0,.376.76A1.694,1.694,0,0,0,42.16-1.552ZM59.776-8.736a3.47,3.47,0,0,1,2.568.952A3.879,3.879,0,0,1,63.3-4.928V0H60.8V-4.544a2.332,2.332,0,0,0-.424-1.528,1.491,1.491,0,0,0-1.208-.5,1.78,1.78,0,0,0-1.392.568,2.448,2.448,0,0,0-.512,1.688V0h-2.5V-4.544q0-2.032-1.632-2.032a1.761,1.761,0,0,0-1.376.568,2.448,2.448,0,0,0-.512,1.688V0h-2.5V-8.608h2.384v.992a3.15,3.15,0,0,1,1.176-.832,3.958,3.958,0,0,1,1.528-.288,3.7,3.7,0,0,1,1.648.36,2.918,2.918,0,0,1,1.184,1.048,3.531,3.531,0,0,1,1.336-1.04A4.215,4.215,0,0,1,59.776-8.736Zm5.76.128h2.5V0h-2.5Zm1.248-1.2a1.583,1.583,0,0,1-1.12-.4,1.3,1.3,0,0,1-.432-.992,1.3,1.3,0,0,1,.432-.992,1.583,1.583,0,0,1,1.12-.4,1.623,1.623,0,0,1,1.12.384,1.231,1.231,0,0,1,.432.96,1.359,1.359,0,0,1-.432,1.032A1.565,1.565,0,0,1,66.784-9.808Zm12,5.536q0,.048-.048.672H72.224a2.028,2.028,0,0,0,.832,1.264,2.756,2.756,0,0,0,1.632.464,3.3,3.3,0,0,0,1.192-.2,2.887,2.887,0,0,0,.968-.632l1.328,1.44A4.463,4.463,0,0,1,74.624.128,5.619,5.619,0,0,1,72.048-.44,4.164,4.164,0,0,1,70.32-2.016,4.342,4.342,0,0,1,69.712-4.3a4.4,4.4,0,0,1,.6-2.28A4.2,4.2,0,0,1,71.96-8.168,4.839,4.839,0,0,1,74.3-8.736a4.8,4.8,0,0,1,2.288.544A3.971,3.971,0,0,1,78.2-6.632,4.652,4.652,0,0,1,78.784-4.272ZM74.32-6.848a2.15,2.15,0,0,0-1.424.48,2.043,2.043,0,0,0-.7,1.312h4.24a2.064,2.064,0,0,0-.7-1.3A2.1,2.1,0,0,0,74.32-6.848ZM85.68-8.736a3.542,3.542,0,0,1,2.584.96,3.807,3.807,0,0,1,.984,2.848V0h-2.5V-4.544A2.244,2.244,0,0,0,86.3-6.072a1.643,1.643,0,0,0-1.3-.5,1.986,1.986,0,0,0-1.5.584,2.418,2.418,0,0,0-.56,1.736V0h-2.5V-8.608h2.384V-7.6a3.31,3.31,0,0,1,1.232-.84A4.293,4.293,0,0,1,85.68-8.736ZM97.056-.416a2.566,2.566,0,0,1-.9.408,4.571,4.571,0,0,1-1.128.136,3.351,3.351,0,0,1-2.376-.784,3,3,0,0,1-.84-2.3V-6.5H90.48v-1.92h1.328v-2.1h2.5v2.1h2.144V-6.5H94.3v3.5a1.175,1.175,0,0,0,.28.84,1.038,1.038,0,0,0,.792.3,1.6,1.6,0,0,0,1.008-.32Zm5.232.544a5.162,5.162,0,0,1-2.44-.568A4.222,4.222,0,0,1,98.16-2.016,4.342,4.342,0,0,1,97.552-4.3a4.342,4.342,0,0,1,.608-2.288,4.222,4.222,0,0,1,1.688-1.576,5.162,5.162,0,0,1,2.44-.568,5.114,5.114,0,0,1,2.432.568,4.236,4.236,0,0,1,1.68,1.576,4.342,4.342,0,0,1,.608,2.288,4.342,4.342,0,0,1-.608,2.288A4.236,4.236,0,0,1,104.72-.44,5.114,5.114,0,0,1,102.288.128Zm0-2.048a2.079,2.079,0,0,0,1.576-.648A2.416,2.416,0,0,0,104.48-4.3a2.416,2.416,0,0,0-.616-1.736,2.079,2.079,0,0,0-1.576-.648,2.1,2.1,0,0,0-1.584.648A2.4,2.4,0,0,0,100.08-4.3a2.4,2.4,0,0,0,.624,1.736A2.1,2.1,0,0,0,102.288-1.92Z" transform="translate(603 1580)" fill="#6a6a6a"/>
      <path id="Trazado_7474" data-name="Trazado 7474" d="M10-2.08V0H1.328V-11.2H9.792v2.08H3.9v2.432H9.1v2.016H3.9V-2.08ZM14.72.128a8.362,8.362,0,0,1-2.1-.264A5.476,5.476,0,0,1,10.992-.8l.832-1.792a5.236,5.236,0,0,0,1.392.6,5.834,5.834,0,0,0,1.6.232q1.584,0,1.584-.784a.555.555,0,0,0-.432-.528,6.4,6.4,0,0,0-1.328-.272A12.811,12.811,0,0,1,12.9-3.712,2.706,2.706,0,0,1,11.7-4.448a2.093,2.093,0,0,1-.5-1.5A2.356,2.356,0,0,1,11.672-7.4a3.038,3.038,0,0,1,1.376-.984,5.877,5.877,0,0,1,2.136-.352,8.383,8.383,0,0,1,1.816.2,5.076,5.076,0,0,1,1.5.552l-.832,1.776a4.967,4.967,0,0,0-2.48-.64,2.523,2.523,0,0,0-1.2.224.659.659,0,0,0-.4.576.572.572,0,0,0,.432.56,7.648,7.648,0,0,0,1.376.3,14.729,14.729,0,0,1,1.728.376,2.6,2.6,0,0,1,1.168.728,2.066,2.066,0,0,1,.5,1.472,2.273,2.273,0,0,1-.48,1.424,3.064,3.064,0,0,1-1.4.968A6.237,6.237,0,0,1,14.72.128ZM25.872-.416a2.566,2.566,0,0,1-.9.408A4.571,4.571,0,0,1,23.84.128a3.351,3.351,0,0,1-2.376-.784,3,3,0,0,1-.84-2.3V-6.5H19.3v-1.92h1.328v-2.1h2.5v2.1h2.144V-6.5H23.12v3.5a1.175,1.175,0,0,0,.28.84,1.038,1.038,0,0,0,.792.3,1.6,1.6,0,0,0,1.008-.32Zm4.88-8.32a4.48,4.48,0,0,1,3.072.952A3.643,3.643,0,0,1,34.9-4.912V0H32.56V-1.072a2.781,2.781,0,0,1-2.624,1.2,4.073,4.073,0,0,1-1.72-.336A2.565,2.565,0,0,1,27.1-1.136,2.415,2.415,0,0,1,26.72-2.48a2.243,2.243,0,0,1,.9-1.888,4.607,4.607,0,0,1,2.792-.688H32.4a1.591,1.591,0,0,0-.5-1.256,2.185,2.185,0,0,0-1.488-.44,4.345,4.345,0,0,0-1.352.216,3.577,3.577,0,0,0-1.128.584L27.04-7.7a5.406,5.406,0,0,1,1.688-.768A7.562,7.562,0,0,1,30.752-8.736ZM30.56-1.552a2.174,2.174,0,0,0,1.136-.3,1.62,1.62,0,0,0,.7-.872V-3.6H30.688q-1.536,0-1.536,1.008a.9.9,0,0,0,.376.76A1.694,1.694,0,0,0,30.56-1.552ZM42.24-8.736a4.387,4.387,0,0,1,2.184.552,3.964,3.964,0,0,1,1.544,1.552,4.686,4.686,0,0,1,.56,2.328,4.686,4.686,0,0,1-.56,2.328A3.964,3.964,0,0,1,44.424-.424,4.387,4.387,0,0,1,42.24.128a3.311,3.311,0,0,1-2.7-1.12V0H37.152V-11.872h2.5V-7.7A3.324,3.324,0,0,1,42.24-8.736ZM41.808-1.92a2.079,2.079,0,0,0,1.576-.648A2.416,2.416,0,0,0,44-4.3a2.416,2.416,0,0,0-.616-1.736,2.079,2.079,0,0,0-1.576-.648,2.079,2.079,0,0,0-1.576.648A2.416,2.416,0,0,0,39.616-4.3a2.416,2.416,0,0,0,.616,1.736A2.079,2.079,0,0,0,41.808-1.92Zm6.384-6.688h2.5V0h-2.5Zm1.248-1.2a1.583,1.583,0,0,1-1.12-.4,1.3,1.3,0,0,1-.432-.992,1.3,1.3,0,0,1,.432-.992,1.583,1.583,0,0,1,1.12-.4,1.623,1.623,0,0,1,1.12.384,1.231,1.231,0,0,1,.432.96,1.359,1.359,0,0,1-.432,1.032A1.565,1.565,0,0,1,49.44-9.808Zm3.568-2.064h2.5V0h-2.5Zm4.816,3.264h2.5V0h-2.5Zm1.248-1.2a1.583,1.583,0,0,1-1.12-.4,1.3,1.3,0,0,1-.432-.992,1.3,1.3,0,0,1,.432-.992,1.583,1.583,0,0,1,1.12-.4,1.623,1.623,0,0,1,1.12.384,1.231,1.231,0,0,1,.432.96,1.359,1.359,0,0,1-.432,1.032A1.565,1.565,0,0,1,59.072-9.808Zm12.336-2.064V0H69.024V-.992A3.292,3.292,0,0,1,66.336.128a4.47,4.47,0,0,1-2.2-.544,3.9,3.9,0,0,1-1.544-1.552,4.731,4.731,0,0,1-.56-2.336,4.731,4.731,0,0,1,.56-2.336,3.9,3.9,0,0,1,1.544-1.552,4.47,4.47,0,0,1,2.2-.544A3.274,3.274,0,0,1,68.912-7.7v-4.176ZM66.768-1.92a2.086,2.086,0,0,0,1.568-.648A2.4,2.4,0,0,0,68.96-4.3a2.4,2.4,0,0,0-.624-1.736,2.086,2.086,0,0,0-1.568-.648,2.1,2.1,0,0,0-1.584.648A2.4,2.4,0,0,0,64.56-4.3a2.4,2.4,0,0,0,.624,1.736A2.1,2.1,0,0,0,66.768-1.92ZM77.184-8.736a4.48,4.48,0,0,1,3.072.952,3.643,3.643,0,0,1,1.072,2.872V0H78.992V-1.072a2.781,2.781,0,0,1-2.624,1.2,4.073,4.073,0,0,1-1.72-.336,2.565,2.565,0,0,1-1.112-.928,2.415,2.415,0,0,1-.384-1.344,2.243,2.243,0,0,1,.9-1.888,4.607,4.607,0,0,1,2.792-.688h1.984a1.591,1.591,0,0,0-.5-1.256,2.185,2.185,0,0,0-1.488-.44,4.345,4.345,0,0,0-1.352.216,3.577,3.577,0,0,0-1.128.584l-.9-1.744a5.406,5.406,0,0,1,1.688-.768A7.562,7.562,0,0,1,77.184-8.736Zm-.192,7.184a2.174,2.174,0,0,0,1.136-.3,1.62,1.62,0,0,0,.7-.872V-3.6H77.12q-1.536,0-1.536,1.008a.9.9,0,0,0,.376.76A1.694,1.694,0,0,0,76.992-1.552Zm15.456-10.32V0H90.064V-.992A3.292,3.292,0,0,1,87.376.128a4.47,4.47,0,0,1-2.2-.544,3.9,3.9,0,0,1-1.544-1.552,4.731,4.731,0,0,1-.56-2.336,4.731,4.731,0,0,1,.56-2.336,3.9,3.9,0,0,1,1.544-1.552,4.47,4.47,0,0,1,2.2-.544A3.274,3.274,0,0,1,89.952-7.7v-4.176ZM87.808-1.92a2.086,2.086,0,0,0,1.568-.648A2.4,2.4,0,0,0,90-4.3a2.4,2.4,0,0,0-.624-1.736,2.086,2.086,0,0,0-1.568-.648,2.1,2.1,0,0,0-1.584.648A2.4,2.4,0,0,0,85.6-4.3a2.4,2.4,0,0,0,.624,1.736A2.1,2.1,0,0,0,87.808-1.92Z" transform="translate(771.5 1509.5) rotate(-90)" fill="#6a6a6a"/>
      <g id="Grupo_3647" data-name="Grupo 3647">
        <path id="Trazado_7472" data-name="Trazado 7472" d="M62.1,0H267" transform="translate(500.5 1559.5)" fill="none" stroke="#707070" stroke-width="1"/>
        <path id="Polígono_5" data-name="Polígono 5" d="M6.5,0,13,11H0Z" transform="translate(552 1566) rotate(-90)" fill="#645959"/>
        <path id="Polígono_6" data-name="Polígono 6" d="M6.5,0,13,11H0Z" transform="translate(777 1553) rotate(90)" fill="#645959"/>
      </g>
      <g id="Grupo_3648" data-name="Grupo 3648" transform="translate(-769 2117) rotate(-90)">
        <path id="Trazado_7472-2" data-name="Trazado 7472" d="M62.1,0H243.656" transform="translate(500.5 1559.5)" fill="none" stroke="#707070" stroke-width="1"/>
        <path id="Polígono_5-2" data-name="Polígono 5" d="M6.5,0,13,11H0Z" transform="translate(552 1566) rotate(-90)" fill="#645959"/>
        <path id="Polígono_6-2" data-name="Polígono 6" d="M6.5,0,13,11H0Z" transform="translate(750 1553) rotate(90)" fill="#645959"/>
      </g>
    </g>
  </g>
</svg>
