<svg xmlns="http://www.w3.org/2000/svg" width="471.047" height="357.643" viewBox="0 0 471.047 357.643">
  <g id="Grupo_3641" data-name="Grupo 3641" transform="translate(-576.633 -3.475)">
    <rect id="Rectángulo_1030" data-name="Rectángulo 1030" width="3" height="11" transform="translate(599 191)" fill="#745f57" opacity="0.427"/>
    <path id="Trazado_7449" data-name="Trazado 7449" d="M224.416,92.543c123.941,0,224.416-49.774,224.416,50.168S348.357,323.673,224.416,323.673,0,242.654,0,142.712,100.474,92.543,224.416,92.543Z" transform="matrix(0.996, 0.087, -0.087, 0.996, 607.541, -0.442)" fill="#ebebeb" opacity="0.468"/>
    <path id="Trazado_7450" data-name="Trazado 7450" d="M146.228,90.164c80.759,0,146.228-40.22,146.228,40.539s-40.249,146.79-121.008,146.79S29.039,212.688,29.039,131.929,65.468,90.164,146.228,90.164Z" transform="matrix(0.469, -0.883, 0.883, 0.469, 492.233, 224.07)" fill="#fff" opacity="0.278"/>
    <rect id="Rectángulo_1018" data-name="Rectángulo 1018" width="3" height="11" transform="translate(606 195) rotate(90)" fill="#745f57" opacity="0.427"/>
    <rect id="Rectángulo_1019" data-name="Rectángulo 1019" width="3" height="11" transform="translate(825 106)" fill="#745f57" opacity="0.427"/>
    <rect id="Rectángulo_1020" data-name="Rectángulo 1020" width="3" height="11" transform="translate(832 110) rotate(90)" fill="#745f57" opacity="0.427"/>
    <rect id="Rectángulo_1021" data-name="Rectángulo 1021" width="3" height="11" transform="translate(667 89) rotate(90)" fill="#745f57" opacity="0.427"/>
    <rect id="Rectángulo_1022" data-name="Rectángulo 1022" width="3" height="11" transform="translate(663 96) rotate(180)" fill="#745f57" opacity="0.427"/>
    <g id="Grupo_3640" data-name="Grupo 3640" transform="translate(936 1662.901)">
      <path id="Intersección_1" data-name="Intersección 1" d="M45.212,41.558c-5.429-4.069-10.436-6.133-14.882-6.133a11.669,11.669,0,0,0-5.543,1.31,7.462,7.462,0,0,0-1.823,1.31L20.043,63.253c-1.49-.106-2.971-.224-4.466-.355Q7.706,62.21,0,61.091C1.293,44.14,3.113,29.52,4.5,19.744,6.224,7.574,7.667.075,7.681,0L65.694,1.243c.131,20.37.986,40.92,2.547,61.185Q57.381,63.594,46.2,63.872C45.256,49.892,45.212,41.649,45.212,41.558Z" transform="translate(-151.393 -1384.34)" fill="#596a8e" stroke="rgba(0,0,0,0)" stroke-miterlimit="10" stroke-width="1"/>
      <g id="Grupo_2901" data-name="Grupo 2901" transform="translate(-229 -1641.913)">
        <path id="Trazado_3753" data-name="Trazado 3753" d="M186.486,96.5c2.988,4.573,6.74,9.427,8.727,13.509-1.154,2.288-6.338,2.644-7.995,4.442a35.171,35.171,0,0,0-9.966-3.779c-6.661-.758-19.929-9.973-19.929-9.973l5.027-1.19,2.759-5.8,2-2.873-9.842-9.616s-3.445-3.046-1.729-4.436,3.831.964,3.831.964L177.775,93.35s-4.445-6-4.668-9.587,3.932-2.984,4.622-.111C178.138,85.342,182.263,90.042,186.486,96.5Z" transform="translate(-142.912 58.299)" fill="#d6a48a"/>
        <path id="Trazado_3754" data-name="Trazado 3754" d="M213.929,96.306c-2.988,4.573-6.74,9.427-8.727,13.509,1.154,2.288,6.338,2.641,8,4.442a35.122,35.122,0,0,1,9.963-3.778c6.661-.758,19.929-9.973,19.929-9.973l-5.027-1.193-2.759-5.8-2-2.876,9.842-9.613s3.445-3.046,1.732-4.439-3.831.964-3.831.964L222.643,93.148s4.442-6,4.664-9.584-3.929-2.984-4.622-.114C222.28,85.14,218.152,89.844,213.929,96.306Z" transform="translate(-29.158 57.844)" fill="#d6a48a"/>
        <path id="Trazado_3755" data-name="Trazado 3755" d="M213.629,81.613A12.262,12.262,0,0,1,210.311,93.8a7.609,7.609,0,0,0,3.318-12.192Z" transform="translate(-17.568 70.235)" fill="#1a1a1a" opacity="0.49"/>
        <path id="Trazado_3757" data-name="Trazado 3757" d="M253.7,70.75H173.792V218.617l82.776.256Z" transform="translate(-100.415 45.592)" fill="#f4564b"/>
        <path id="Trazado_3758" data-name="Trazado 3758" d="M189.353,71.159l4.753,182.091s20.929-5.583,30.231-.932L219.12,70.463Z" transform="translate(-65.113 44.94)" fill="#d8e2ea"/>
        <rect id="Rectángulo_1026" data-name="Rectángulo 1026" width="13.844" height="29.572" transform="translate(102.781 88.007)" fill="#d1a48b"/>
        <path id="Trazado_3759" data-name="Trazado 3759" d="M181.842,70.717l22.485.193a8.494,8.494,0,0,1-8.263,7.495C188.376,78.98,182.228,74.754,181.842,70.717Z" transform="translate(-82.153 45.517)" fill="#d1a48b"/>
        <path id="Trazado_3760" data-name="Trazado 3760" d="M203.378,71.618l-.8,181.957s-20.929-5.583-30.231-.932L174.673,70.32Z" transform="translate(-103.689 44.616)" fill="#d8e2ea"/>
        <path id="Trazado_3761" data-name="Trazado 3761" d="M190.466,71.294,179.2,70.463,186.413,99.3l-8.372-.232,12.326,62.557Z" transform="translate(-90.776 44.939)" fill="#e3f2fc"/>
        <path id="Trazado_3762" data-name="Trazado 3762" d="M189.214,70.927l12.2-.464-7.279,28.33,8.361-.492-10.379,62.91Z" transform="translate(-65.428 44.939)" fill="#e3f2fc"/>
        <path id="Trazado_3763" data-name="Trazado 3763" d="M248.163,47.318a10.563,10.563,0,0,0,5.929.958,18.194,18.194,0,0,1-7.086,7.122,3.552,3.552,0,0,0,3.475,1.667c-2.778,5.2-7.446,9.8-13.267,10.767-3.582.595-7.23-.219-10.806-.856a113.414,113.414,0,0,0-16.281-1.713c-4.834-.157-10.257.239-13.529,3.8a15.259,15.259,0,0,0-2.925,5.475c-4.824,14.042-2.634,29.685-7.008,43.875a106.856,106.856,0,0,1-9.031-38.864,15.486,15.486,0,0,0-.9,7.384,117.591,117.591,0,0,1-.075-29.718,19.615,19.615,0,0,1,2.082-7.541c1.324-2.268,3.72-4.086,6.344-4a7.952,7.952,0,0,1,3.618-6.946A18.544,18.544,0,0,1,196.369,36a59.017,59.017,0,0,1,28.12,2.023c3.05.99,6.024,2.236,9.142,2.991a60.858,60.858,0,0,0,9.525,1.268l10.731.853A45.4,45.4,0,0,1,248.163,47.318Z" transform="translate(-95.964 -35.156)" fill="#443c37"/>
        <path id="Trazado_3764" data-name="Trazado 3764" d="M186.045,102.254s-1,15.617,7.76,19.3,25.489,9.518,35.687,7.8,9.044-9.113,9.044-9.113l.311-25.58s4.275-18.232,4.115-27.178-1.458-15.846-6.4-22.439c-3.579-4.779-28.813-10.718-39.975-5.658s-11.6,18.683-11.787,22.779S186.394,93.3,186.394,93.3s-7.841-9.45-11.587,2.765C171.62,106.457,186.045,102.254,186.045,102.254Z" transform="translate(-99.155 -29.947)" fill="#e6b89c"/>
        <path id="Trazado_3765" data-name="Trazado 3765" d="M190.95,52.962a3.58,3.58,0,1,0-3.517,3.645A3.581,3.581,0,0,0,190.95,52.962Z" transform="translate(-77.732 -2.735)" fill="#1a1a1a"/>
        <path id="Trazado_3766" data-name="Trazado 3766" d="M192.785,70.927a7.431,7.431,0,0,1-4.929-1.638.383.383,0,0,1-.052-.539.388.388,0,0,1,.543-.049,7.188,7.188,0,0,0,7.322.837,3.3,3.3,0,0,0,2.239-2.651c.065-2.824-4.808-3.6-4.86-3.612a.378.378,0,0,1-.291-.222.394.394,0,0,1,.026-.366c5.341-8.266,1.651-12.042,1.49-12.2a.385.385,0,0,1,.536-.552c.173.17,4.174,4.187-1.079,12.692,1.425.32,5.011,1.412,4.945,4.275a4.024,4.024,0,0,1-2.69,3.331A8.137,8.137,0,0,1,192.785,70.927Z" transform="translate(-68.826 -1.869)" fill="#1a1a1a" opacity="0.49"/>
        <path id="Trazado_3767" data-name="Trazado 3767" d="M184.342,50.846s7.573,2.344,13.3-.762a3.87,3.87,0,0,0-.631-3.821c-1.507-1.569-7.482,1.445-12.558,1.693C180.553,48.143,184.342,50.846,184.342,50.846Z" transform="translate(-80.23 -10.98)" fill="#443c37"/>
        <path id="Trazado_3768" data-name="Trazado 3768" d="M201.389,52.214s-8.247-.863-9.541-1.726a2.3,2.3,0,0,1,.333-3.739s7.959,1.964,8.92,3.21A1.954,1.954,0,0,1,201.389,52.214Z" transform="translate(-61.313 -8.857)" fill="#443c37"/>
        <path id="Trazado_3770" data-name="Trazado 3770" d="M190.157,51.872a4.947,4.947,0,0,1-3.079,2.017,2.845,2.845,0,0,1-3.069-1.644,4.165,4.165,0,0,0,3.092.693A10.126,10.126,0,0,0,190.157,51.872Z" transform="translate(-77.237 2.765)" fill="#1a1a1a" opacity="0.49"/>
        <path id="Trazado_3771" data-name="Trazado 3771" d="M191.259,52.394c1.069,1.533,3.272,1.893,5.063,1.36a3.467,3.467,0,0,1-3.736.807A2.974,2.974,0,0,1,191.259,52.394Z" transform="translate(-60.789 3.949)" fill="#1a1a1a" opacity="0.49"/>
        <path id="Trazado_3772" data-name="Trazado 3772" d="M175.469,57.448a2.8,2.8,0,0,1,2.2-2.644,4,4,0,0,1,4.135,1.379,3.807,3.807,0,0,1,.137,4.324c-.039-1.314-.212-2.863-1.353-3.52a3.519,3.519,0,0,0-1.111-.36,4.056,4.056,0,0,0-2.579.154C176.421,57.026,176,57.445,175.469,57.448Z" transform="translate(-96.621 9.119)" fill="#1a1a1a" opacity="0.49"/>
        <path id="Trazado_3773" data-name="Trazado 3773" d="M189.983,54.387a3.083,3.083,0,0,1,2.131.01,1.127,1.127,0,0,1,.719.611.875.875,0,0,1-.311.922,1.741,1.741,0,0,1-.964.333,3.465,3.465,0,0,1-1.6-.248,1.355,1.355,0,0,1-.595-.418.614.614,0,0,1-.046-.69c.222-.317.742-.268.987-.565l.333.278" transform="translate(-65.377 8.051)" fill="#fff" opacity="0.43"/>
        <path id="Trazado_3774" data-name="Trazado 3774" d="M186.8,50.814a1.054,1.054,0,1,0-1.033,1.072A1.055,1.055,0,0,0,186.8,50.814Z" transform="translate(-75.687 -1.986)" fill="#fff" opacity="0.43"/>
        <g id="Grupo_2897" data-name="Grupo 2897" transform="translate(100.635 67.418)">
          <path id="Trazado_3775" data-name="Trazado 3775" d="M182.611,59.524a.794.794,0,0,1-.088,0,.443.443,0,0,1-.389-.487c.18-1.585.719-2.608,1.611-3.037a3.206,3.206,0,0,1,2.821.333.439.439,0,0,1-.471.742,2.362,2.362,0,0,0-1.971-.281c-.749.36-1.02,1.474-1.118,2.34A.439.439,0,0,1,182.611,59.524Z" transform="translate(-182.131 -55.782)" fill="#1a1a1a" opacity="0.49"/>
          <g id="Grupo_2896" data-name="Grupo 2896" transform="translate(3.695 3.271)">
            <path id="Trazado_3776" data-name="Trazado 3776" d="M183.262,56.783s15.732,10.107,29.77,3.193c0,0-5.021,10.587-3.177,13.427C209.856,73.4,183.119,77.823,183.262,56.783Z" transform="translate(-183.262 -56.783)" fill="#333"/>
            <path id="Trazado_3777" data-name="Trazado 3777" d="M206.825,68.732s-2.311-4.723-2.589-4.612c0,0-13.96-2.013-17.431-5.3a25.21,25.21,0,0,0-2.834,2.1S187.8,70.294,206.825,68.732Z" transform="translate(-181.653 -52.166)" fill="#e6e6e6"/>
            <path id="Trazado_3778" data-name="Trazado 3778" d="M207.891,61.213s-1.964,7.106-2.321,6.959c0,0-17.922.706-22.024-11.087C183.546,57.085,196.11,64.714,207.891,61.213Z" transform="translate(-182.617 -56.098)" fill="#fff"/>
          </g>
        </g>
        <path id="Trazado_3779" data-name="Trazado 3779" d="M198.351,53.552a3.58,3.58,0,1,0-3.514,3.641A3.581,3.581,0,0,0,198.351,53.552Z" transform="translate(-60.942 -1.403)" fill="#1a1a1a"/>
        <path id="Trazado_3780" data-name="Trazado 3780" d="M194.2,51.4a1.056,1.056,0,1,0-1.036,1.072A1.056,1.056,0,0,0,194.2,51.4Z" transform="translate(-58.897 -0.654)" fill="#fff" opacity="0.43"/>
        <path id="Trazado_3781" data-name="Trazado 3781" d="M239.672,58.532a33.686,33.686,0,0,0-2.406-12.819,12.077,12.077,0,0,0-3.759-5.478,12.89,12.89,0,0,0-4.782-1.876c-7.645-1.726-15.565-1.693-23.4-1.647-4.55.026-9.155.056-13.558,1.216a14.516,14.516,0,0,0-5.39,2.491,19.74,19.74,0,0,0-3.818,4.56L177.6,52.285c-.641.941-1.307,2.1-.879,3.157a.827.827,0,0,1,1.131.4q.716,11.537,1.432,23.07c.386,6.2.8,12.522,3.177,18.258q4.923-20.916,8.371-42.139a65.216,65.216,0,0,1-.886,13.156q2.849-8.139,5.109-16.467,12.934,2.559,25.757,5.655c-3.684-.814-7.805-2.036-9.492-5.41Q225.495,55.248,239.672,58.532Z" transform="translate(-94.075 -31.662)" fill="#443c37"/>
        <g id="Grupo_2900" data-name="Grupo 2900" transform="translate(0 98.769)">
          <path id="Trazado_3783" data-name="Trazado 3783" d="M316.819,245.964l34.258,6.286s-8.253-38.177,4.883-58.4,19.814-21.413,19.814-21.413l-.33-27.862s-6.7-1.036-20.311-20.942-6.259-58.263-6.259-58.263l-34.1,7.093C258.442,148.187,229.41,80.9,229.41,80.9L201.1,74.549c.618,52.383-49.755,65.983-49.755,65.983l.183,15.6.118,10.031.183,15.6s50.68,12.408,51.3,64.794l28.156-7.021S258.72,171.591,316.819,245.964Z" transform="translate(-151.343 -65.374)" fill="#866f66"/>
          <g id="Grupo_2898" data-name="Grupo 2898" transform="translate(130.061 88.206)">
            <path id="Trazado_3784" data-name="Trazado 3784" d="M208.036,107.437a.89.89,0,0,1,.239-.621,2.391,2.391,0,0,0,2.138-.762.883.883,0,0,1,.8.987q-.088.858-.163,1.765l-.2,2.38-1.422-1.919a9.669,9.669,0,0,0-1.108-1.183A.9.9,0,0,1,208.036,107.437Z" transform="translate(-152.79 -61.303)" fill="#fff"/>
            <path id="Trazado_3785" data-name="Trazado 3785" d="M199.251,112.077a.891.891,0,0,1,.346-.719,30,30,0,0,1,3.327-2.255.9.9,0,1,1,.909,1.546,28.792,28.792,0,0,0-3.135,2.125.9.9,0,0,1-1.258-.154A.919.919,0,0,1,199.251,112.077Zm6.714-3.945a.891.891,0,0,1,.546-.837,32.012,32.012,0,0,1,3.782-1.337.892.892,0,0,1,1.108.615.9.9,0,0,1-.614,1.111,30.226,30.226,0,0,0-3.573,1.262.894.894,0,0,1-1.177-.474A.825.825,0,0,1,205.965,108.131Zm7.488-2.138a.892.892,0,0,1,.768-.9,21.753,21.753,0,0,1,2.88-.229c.4-.007.8,0,1.183.02a.875.875,0,0,1,.853.938.894.894,0,0,1-.938.853c-.35-.016-.709-.023-1.075-.016a20.416,20.416,0,0,0-2.644.209.9.9,0,0,1-1.02-.762C213.456,106.072,213.453,106.033,213.453,105.994Zm7.74.4a.945.945,0,0,1,.033-.248.9.9,0,0,1,1.1-.628,17.452,17.452,0,0,1,3.808,1.533.9.9,0,1,1-.863,1.575,15.773,15.773,0,0,0-3.416-1.379A.9.9,0,0,1,221.193,106.4Z" transform="translate(-172.72 -63.985)" fill="#fff"/>
            <path id="Trazado_3786" data-name="Trazado 3786" d="M197.747,108.439a.9.9,0,0,1,1.69-.438c.075.144.147.278.212.4.1-.114.212-.232.337-.36a.9.9,0,0,1,1.3,1.236,15.078,15.078,0,0,0-1.1,1.265l-.882,1.209-.65-1.347c-.007-.013-.288-.595-.8-1.556A.89.89,0,0,1,197.747,108.439Z" transform="translate(-176.132 -57.945)" fill="#fff"/>
            <path id="Trazado_3787" data-name="Trazado 3787" d="M193.426,103.252a.881.881,0,0,1,.127-.471.9.9,0,0,1,1.232-.307,23.166,23.166,0,0,1,3.118,2.278.9.9,0,0,1-1.17,1.363,21.565,21.565,0,0,0-2.873-2.1A.888.888,0,0,1,193.426,103.252Zm5.661,4.775a.9.9,0,0,1,1.556-.621c.817.886,1.644,1.857,2.455,2.889a.9.9,0,0,1-1.412,1.108c-.781-.994-1.575-1.928-2.36-2.775A.9.9,0,0,1,199.087,108.027Zm4.6,5.831a.9.9,0,0,1,1.638-.52c.762,1.111,1.445,2.183,2.043,3.164a.9.9,0,0,1-1.536.932c-.579-.954-1.245-2-1.987-3.079A.894.894,0,0,1,203.689,113.858Z" transform="translate(-185.934 -69.705)" fill="#fff"/>
            <path id="Trazado_3788" data-name="Trazado 3788" d="M191.739,102.138a.9.9,0,0,1,1.778-.19l.235,1.141a12.582,12.582,0,0,1,1.252.294.9.9,0,0,1-.5,1.723,9.618,9.618,0,0,0-1.608-.327l-.644-.075-.494-2.393A1.085,1.085,0,0,1,191.739,102.138Z" transform="translate(-189.762 -72.23)" fill="#fff"/>
            <path id="Trazado_3789" data-name="Trazado 3789" d="M191.424,100.6a.9.9,0,0,1,1.778-.19l.513,2.52a.9.9,0,1,1-1.758.356l-.513-2.517A.777.777,0,0,1,191.424,100.6Z" transform="translate(-190.476 -75.728)" fill="#fff"/>
            <path id="Trazado_3790" data-name="Trazado 3790" d="M191.134,99.547l.311-.337a4.584,4.584,0,0,1,1.994-1.023.9.9,0,0,1,.539,1.713,6.181,6.181,0,0,0-.869.337l.235,1.16a.9.9,0,0,1-1.759.36Z" transform="translate(-191.134 -79.235)" fill="#fff"/>
            <path id="Trazado_3791" data-name="Trazado 3791" d="M192.659,107.216a.9.9,0,0,1,.794-.9c1.039-.121,2.2-.2,3.452-.232a.893.893,0,0,1,.922.869.91.91,0,0,1-.873.922c-1.2.036-2.308.108-3.295.226a.9.9,0,0,1-.994-.791Zm6.753-.222v-.036a.9.9,0,0,1,.922-.873c1.046.026,2.18.078,3.412.16a.859.859,0,0,1,.837.954.9.9,0,0,1-.954.837c-1.206-.078-2.317-.131-3.344-.157A.9.9,0,0,1,199.412,106.994Zm6.75.428c0-.029,0-.062.007-.095a.893.893,0,0,1,.977-.807c1.066.1,2.193.219,3.383.36a.9.9,0,0,1-.209,1.785c-1.177-.141-2.291-.258-3.344-.36A.9.9,0,0,1,206.162,107.422Zm6.717.791a.951.951,0,0,1,.01-.134.9.9,0,0,1,1.01-.765c1.079.147,2.2.311,3.363.494a.9.9,0,1,1-.275,1.772c-1.157-.18-2.268-.34-3.334-.487A.9.9,0,0,1,212.879,108.213Zm6.681,1.033a1.324,1.324,0,0,1,.013-.16.9.9,0,0,1,1.036-.735q1.191.2,2.442.425c.281.049.552.085.817.1a.9.9,0,0,1-.141,1.791c-.32-.026-.654-.069-.994-.131q-1.24-.221-2.425-.422A.9.9,0,0,1,219.56,109.246Zm6.655.092a.9.9,0,0,1,.578-.847,7.177,7.177,0,0,0,2.481-1.654.9.9,0,0,1,1.265,1.271,8.919,8.919,0,0,1-3.105,2.059.894.894,0,0,1-1.157-.52A.935.935,0,0,1,226.215,109.338Zm4.815-4.556a.882.882,0,0,1,.118-.454,19.972,19.972,0,0,0,1.353-2.935.9.9,0,1,1,1.683.624,21.468,21.468,0,0,1-1.481,3.2.9.9,0,0,1-1.674-.438Zm2.416-6.3a.941.941,0,0,1,.029-.232c.265-1.036.494-2.128.68-3.242a.9.9,0,0,1,1.036-.735.915.915,0,0,1,.735,1.036c-.2,1.164-.438,2.3-.713,3.383a.9.9,0,0,1-1.768-.209Z" transform="translate(-187.674 -88.049)" fill="#fff"/>
            <path id="Trazado_3792" data-name="Trazado 3792" d="M205.49,95.916c0-.033,0-.065,0-.1.108-1.062.131-1.719.134-1.732l.016-.435.35-.255a7.279,7.279,0,0,1,1.84-.912.9.9,0,1,1,.582,1.7,6.093,6.093,0,0,0-1.023.454c-.02.317-.056.781-.111,1.36a.9.9,0,0,1-1.791-.078Z" transform="translate(-158.566 -92.192)" fill="#fff"/>
            <path id="Trazado_3793" data-name="Trazado 3793" d="M207.072,93.269a.835.835,0,0,1,.016-.2.9.9,0,0,1,1.066-.69,7.7,7.7,0,0,1,3.458,1.778.9.9,0,0,1-1.17,1.36,5.956,5.956,0,0,0-2.661-1.383A.9.9,0,0,1,207.072,93.269Zm5.011,41.233a.836.836,0,0,1,.013-.154c.2-1.232.418-2.383.654-3.468a.9.9,0,1,1,1.755.382c-.232,1.056-.445,2.174-.641,3.37a.9.9,0,0,1-1.781-.131Zm.265-36.991a.9.9,0,0,1,1.657-.49,22.182,22.182,0,0,1,1.651,3.229.9.9,0,1,1-1.654.693,20.5,20.5,0,0,0-1.513-2.965A.907.907,0,0,1,212.347,97.512Zm1.206,30.192a1.049,1.049,0,0,1,.029-.245c.324-1.19.65-2.3.968-3.37a.9.9,0,0,1,1.719.513c-.314,1.052-.637,2.147-.951,3.324a.9.9,0,0,1-1.765-.222Zm1.54-23.815a.9.9,0,0,1,1.759-.271c.353,1.18.657,2.337.9,3.439a.9.9,0,0,1-1.755.379c-.229-1.052-.52-2.164-.863-3.3A.82.82,0,0,1,215.093,103.889Zm.392,17.127a.791.791,0,0,1,.033-.245c.343-1.275.588-2.327.765-3.314a.9.9,0,1,1,1.765.317c-.186,1.043-.438,2.144-.8,3.468a.9.9,0,0,1-1.762-.226Zm1.046-10.326a.9.9,0,0,1,1.791-.1,26.249,26.249,0,0,1,.121,3.6.9.9,0,0,1-.932.863.871.871,0,0,1-.863-.932,24.071,24.071,0,0,0-.111-3.35Z" transform="translate(-154.98 -92.36)" fill="#fff"/>
          </g>
          <g id="Grupo_2899" data-name="Grupo 2899" transform="translate(41.426 36.232)">
            <path id="Trazado_3794" data-name="Trazado 3794" d="M172.94,79.875a.894.894,0,0,1,.327-.706c.445-.366.9-.745,1.357-1.144l1.811-1.566-.333,2.373a9.859,9.859,0,0,0-.039,1.618.922.922,0,0,1-.856.935,2.407,2.407,0,0,0-2.059-.954A.9.9,0,0,1,172.94,79.875Z" transform="translate(-143.774 -76.459)" fill="#fff"/>
            <path id="Trazado_3795" data-name="Trazado 3795" d="M173.551,79.5a.9.9,0,0,1,1.755-.271A15.632,15.632,0,0,0,176.78,82.6a.9.9,0,0,1-1.549.905,17.548,17.548,0,0,1-1.644-3.762A.817.817,0,0,1,173.551,79.5Zm3.886,6.691a.9.9,0,0,1,1.556-.621,19.467,19.467,0,0,0,2.791,2.471.9.9,0,0,1-1.066,1.448,21.857,21.857,0,0,1-3.043-2.7A.9.9,0,0,1,177.437,86.189Zm6.22,4.654a.9.9,0,0,1,1.327-.8,30.552,30.552,0,0,0,3.435,1.6.9.9,0,1,1-.654,1.67,31.6,31.6,0,0,1-3.638-1.693A.894.894,0,0,1,183.658,90.844Zm7.256,2.834a.928.928,0,0,1,.026-.229.9.9,0,0,1,1.088-.65,28.824,28.824,0,0,0,3.723.677.88.88,0,0,1,.788.994.9.9,0,0,1-.994.788,29.517,29.517,0,0,1-3.952-.719A.9.9,0,0,1,190.914,93.678Z" transform="translate(-142.388 -71.624)" fill="#fff"/>
            <path id="Trazado_3796" data-name="Trazado 3796" d="M181.24,84.367a.9.9,0,0,1,.866-.909,15.09,15.09,0,0,0,1.67-.137l1.477-.245-.48,1.419c0,.01-.213.621-.516,1.67a.9.9,0,1,1-1.723-.5l.127-.438c-.15.007-.317.016-.49.023a.9.9,0,0,1-.932-.866Z" transform="translate(-124.945 -61.448)" fill="#fff"/>
            <path id="Trazado_3797" data-name="Trazado 3797" d="M180.867,96.7v-.036c.033-1.2.124-2.471.268-3.779a.9.9,0,0,1,.99-.794.874.874,0,0,1,.794.99c-.141,1.258-.226,2.481-.258,3.631a.9.9,0,0,1-1.794-.013Zm.091,3.71a.9.9,0,0,1,1.794-.088,21.84,21.84,0,0,0,.572,3.517.9.9,0,1,1-1.736.445,23.212,23.212,0,0,1-.628-3.808Zm.706-11.09a.956.956,0,0,1,.013-.167c.232-1.327.5-2.569.755-3.687a.9.9,0,0,1,1.749.405c-.255,1.088-.51,2.3-.735,3.592a.9.9,0,0,1-1.781-.144Z" transform="translate(-125.791 -57.608)" fill="#fff"/>
            <path id="Trazado_3798" data-name="Trazado 3798" d="M181.527,95.356a.89.89,0,0,1,.141-.5l.634-.977c-.245-.343-.474-.709-.69-1.085a.9.9,0,1,1,1.562-.882,9.716,9.716,0,0,0,.922,1.36l.409.507-1.327,2.053a.9.9,0,0,1-1.651-.477Z" transform="translate(-124.366 -42.434)" fill="#fff"/>
            <path id="Trazado_3799" data-name="Trazado 3799" d="M180.65,96.1a.922.922,0,0,1,.144-.5l1.4-2.157a.9.9,0,1,1,1.51.974l-1.4,2.157a.9.9,0,0,1-1.654-.477Z" transform="translate(-126.283 -38.859)" fill="#fff"/>
            <path id="Trazado_3800" data-name="Trazado 3800" d="M179.409,96.2a.944.944,0,0,1,.1-.415.9.9,0,0,1,1.206-.392,6.246,6.246,0,0,0,.856.366l.644-.994a.9.9,0,0,1,1.507.974L182.5,97.631l-.458.026a4.664,4.664,0,0,1-2.138-.667A.9.9,0,0,1,179.409,96.2Z" transform="translate(-129.099 -35.861)" fill="#fff"/>
            <path id="Trazado_3801" data-name="Trazado 3801" d="M166.905,92.338a.9.9,0,0,1,.373-.739c.971-.7,1.938-1.347,2.873-1.915a.9.9,0,1,1,.932,1.533c-.892.543-1.821,1.16-2.755,1.837a.9.9,0,0,1-1.252-.2A.87.87,0,0,1,166.905,92.338Zm5.789-3.481a.908.908,0,0,1,.516-.827,22.224,22.224,0,0,1,3.3-1.249.9.9,0,0,1,.49,1.729,19.7,19.7,0,0,0-3.027,1.147.9.9,0,0,1-1.193-.431A.937.937,0,0,1,172.694,88.857Zm6.495-1.719h0a.9.9,0,0,1,.889-.909,8.906,8.906,0,0,1,3.664.706.9.9,0,0,1-.716,1.644,7.141,7.141,0,0,0-2.932-.556A.9.9,0,0,1,179.188,87.138Zm5.982,2.638a.894.894,0,0,1,1.572-.6,9.435,9.435,0,0,1,.618.781q.73,1.03,1.438,2a.9.9,0,0,1-1.455,1.052c-.474-.654-.954-1.324-1.445-2.017-.167-.229-.333-.445-.51-.647A.89.89,0,0,1,185.17,89.776Zm4.011,5.449a.9.9,0,0,1,1.615-.549q1.049,1.4,2.036,2.68a.9.9,0,0,1-1.422,1.1q-.99-1.289-2.053-2.7A.886.886,0,0,1,189.181,95.225Zm4.138,5.347a.9.9,0,0,1,1.6-.572q1.113,1.383,2.134,2.592a.9.9,0,1,1-1.37,1.157q-1.039-1.226-2.164-2.625A.885.885,0,0,1,193.319,100.572Zm4.36,5.161a.886.886,0,0,1,.3-.677.9.9,0,0,1,1.265.069c.807.9,1.569,1.716,2.278,2.455a.9.9,0,1,1-1.291,1.245c-.726-.752-1.5-1.582-2.324-2.5A.893.893,0,0,1,197.679,105.733Zm4.713,4.851a.9.9,0,0,1,1.507-.667c.879.814,1.723,1.536,2.507,2.147a.9.9,0,0,1-1.1,1.415c-.827-.641-1.709-1.4-2.625-2.249A.887.887,0,0,1,202.392,110.584Z" transform="translate(-157.465 -54.295)" fill="#fff"/>
            <path id="Trazado_3802" data-name="Trazado 3802" d="M165.147,89.992a.9.9,0,0,1,1.285-.82,6.584,6.584,0,0,0,1.046.392c.239-.212.588-.52,1.033-.892a.9.9,0,0,1,1.154,1.376c-.82.686-1.3,1.137-1.307,1.147l-.317.3-.431-.062a7.378,7.378,0,0,1-1.951-.637A.9.9,0,0,1,165.147,89.992Z" transform="translate(-161.453 -49.226)" fill="#fff"/>
            <path id="Trazado_3803" data-name="Trazado 3803" d="M164.017,108.466a.9.9,0,0,1,1.791-.085,5.956,5.956,0,0,0,.932,2.85.9.9,0,0,1-1.5.994,7.738,7.738,0,0,1-1.222-3.7Zm.278-3.458a.851.851,0,0,1,.023-.2,21.617,21.617,0,0,1,1.082-3.465.9.9,0,0,1,1.667.67,20.135,20.135,0,0,0-1,3.174.9.9,0,0,1-1.775-.18Zm2.51-6.475a.858.858,0,0,1,.1-.425c.575-1.108,1.17-2.144,1.762-3.082a.9.9,0,1,1,1.517.958c-.566.9-1.134,1.893-1.69,2.955a.9.9,0,0,1-1.69-.405Zm3.73-5.857a.885.885,0,0,1,.2-.569,25.316,25.316,0,0,1,2.432-2.654.9.9,0,1,1,1.232,1.3,23.811,23.811,0,0,0-2.262,2.468.9.9,0,0,1-1.6-.549Zm5.034-4.759a.9.9,0,0,1,.376-.742c.866-.614,1.817-1.226,3-1.915a.9.9,0,1,1,.905,1.549c-1.131.664-2.04,1.245-2.86,1.827a.9.9,0,0,1-1.419-.719Zm5.962-3.576a.893.893,0,0,1,.461-.794c.961-.533,1.961-1.088,3.007-1.706a.9.9,0,1,1,.909,1.549c-1.062.621-2.076,1.186-3.046,1.726a.895.895,0,0,1-1.33-.775Zm5.982-3.546a.9.9,0,0,1,.405-.765c.9-.588,1.84-1.236,2.818-1.958a.9.9,0,1,1,1.062,1.445c-1,.742-1.968,1.405-2.9,2.017a.9.9,0,0,1-1.389-.739Z" transform="translate(-164.017 -73.198)" fill="#fff"/>
          </g>
          <path id="Trazado_3804" data-name="Trazado 3804" d="M184.778,111.748a.9.9,0,0,1,1.762-.245l.945,3.461a.891.891,0,0,1-.628,1.1.9.9,0,0,1-1.1-.631l-.945-3.461A.791.791,0,0,1,184.778,111.748Zm1.889,6.926a.9.9,0,0,1,1.762-.245l.876,3.2,2.834-.226a.9.9,0,0,1,.144,1.791l-3.576.284a.9.9,0,0,1-.968-.824.266.266,0,0,1,0-.072.818.818,0,0,1-.092-.219L186.7,118.9A.768.768,0,0,1,186.667,118.674Zm.938-8.907a.9.9,0,0,1,.441-.784c.9-.53,1.968-1.144,3.154-1.788a.9.9,0,0,1,.856,1.579c-1.164.631-2.216,1.232-3.1,1.755a.9.9,0,0,1-1.229-.317A.888.888,0,0,1,187.605,109.767Zm6.318-3.419a.888.888,0,0,1,.5-.817c1.069-.526,2.177-1.039,3.3-1.52a.9.9,0,0,1,.706,1.651c-1.1.471-2.18.971-3.226,1.481a.891.891,0,0,1-1.288-.794Zm.971,15.676a.9.9,0,0,1,.824-.905l3.579-.284a.9.9,0,1,1,.144,1.791l-3.579.284a.9.9,0,0,1-.964-.824Zm5.645-18.471a.9.9,0,0,1,.608-.86c.915-.314,1.824-.588,2.713-.811a5.64,5.64,0,0,0,.677-.222.9.9,0,0,1,.667,1.67,7.3,7.3,0,0,1-.905.291c-.843.212-1.7.474-2.572.768a.9.9,0,0,1-1.137-.559A.83.83,0,0,1,200.539,103.553Zm1.51,17.9a.9.9,0,0,1,.824-.905l3.579-.284a.9.9,0,0,1,.968.824.88.88,0,0,1-.824.964l-3.579.288a.9.9,0,0,1-.964-.824Zm4.818-21.014a.886.886,0,0,1,.242-.624,14.643,14.643,0,0,0,1.971-2.739.9.9,0,0,1,1.559.9,16.618,16.618,0,0,1-2.223,3.072.9.9,0,0,1-1.549-.6Zm2.337,20.445a.9.9,0,0,1,.827-.905l3.576-.284a.9.9,0,1,1,.144,1.788l-3.576.288a.9.9,0,0,1-.967-.824ZM210.518,94.3a.873.873,0,0,1,.065-.35c.409-1.007.8-2.121,1.17-3.314a.9.9,0,0,1,1.716.526c-.382,1.242-.794,2.409-1.222,3.465a.9.9,0,0,1-1.729-.327Zm2.134-6.861a.832.832,0,0,1,.023-.219c.311-1.324.546-2.52.716-3.475a.9.9,0,0,1,1.768.314c-.173.981-.415,2.21-.735,3.573a.9.9,0,0,1-1.772-.193Zm2.229-6.387a.9.9,0,0,1,.5-.817l3.216-1.592a.9.9,0,0,1,.8,1.608l-3.216,1.592a.9.9,0,0,1-1.2-.405A.919.919,0,0,1,214.882,81.052Zm1.481,39.262a.894.894,0,0,1,.827-.9l3.576-.284a.9.9,0,1,1,.144,1.788l-3.576.284a.9.9,0,0,1-.967-.824Zm3.324-38.367a.9.9,0,0,1,1.723-.369,24.176,24.176,0,0,0,1.6,3.053.9.9,0,1,1-1.523.945,26.094,26.094,0,0,1-1.722-3.282A.945.945,0,0,1,219.687,81.948Zm3.831,37.8a.894.894,0,0,1,.827-.9l3.579-.284a.9.9,0,1,1,.141,1.788l-3.579.284a.9.9,0,0,1-.964-.824Zm-.072-31.732a.91.91,0,0,1,.32-.7.9.9,0,0,1,1.265.111,26.934,26.934,0,0,0,2.4,2.5.9.9,0,1,1-1.213,1.324,28.054,28.054,0,0,1-2.559-2.667A.888.888,0,0,1,223.446,88.014Zm5.266,4.838a.87.87,0,0,1,.17-.533.9.9,0,0,1,1.252-.206,34.685,34.685,0,0,0,2.942,1.9.9.9,0,1,1-.9,1.553c-1.085-.628-2.128-1.3-3.092-1.991A.9.9,0,0,1,228.711,92.852Zm1.965,26.325a.894.894,0,0,1,.824-.9l3.579-.284a.9.9,0,0,1,.144,1.788l-3.579.284a.9.9,0,0,1-.967-.824Zm4.236-22.72a.835.835,0,0,1,.085-.392.9.9,0,0,1,1.2-.431c1.026.484,2.118.951,3.242,1.389a.9.9,0,0,1-.65,1.674c-1.164-.454-2.295-.935-3.36-1.438A.893.893,0,0,1,234.912,96.457Zm2.919,22.151a.9.9,0,0,1,.827-.905l3.576-.284a.9.9,0,0,1,.967.824.918.918,0,0,1-.824.967l-3.576.284a.9.9,0,0,1-.968-.824Zm3.765-19.53a.958.958,0,0,1,.043-.288.9.9,0,0,1,1.131-.579c1.131.369,2.268.709,3.4,1.02a.9.9,0,0,1-.481,1.732q-1.741-.485-3.475-1.046A.89.89,0,0,1,241.6,99.079Zm3.39,18.961a.9.9,0,0,1,.827-.905l3.579-.284a.9.9,0,0,1,.144,1.791l-3.579.284a.9.9,0,0,1-.968-.824ZM248.516,101a1.021,1.021,0,0,1,.023-.222.9.9,0,0,1,1.082-.664c1.173.281,2.34.539,3.488.781a.91.91,0,0,1,.69,1.066.894.894,0,0,1-1.062.69q-1.745-.368-3.53-.791A.9.9,0,0,1,248.516,101Zm3.628,16.467a.9.9,0,0,1,.824-.905l3.579-.284a.9.9,0,0,1,.144,1.791l-3.579.284a.9.9,0,0,1-.964-.824Zm3.4-14.97a.864.864,0,0,1,.016-.183.9.9,0,0,1,1.049-.709l3.53.67a.9.9,0,0,1-.333,1.765l-3.537-.673A.9.9,0,0,1,255.547,102.5Zm3.752,14.4a.9.9,0,0,1,.827-.905l3.576-.284a.9.9,0,0,1,.968.824.889.889,0,0,1-.824.968l-3.576.284a.9.9,0,0,1-.967-.824Zm3.308-13.045a.959.959,0,0,1,.02-.19.9.9,0,0,1,1.059-.7c1.275.258,2.468.52,3.546.794a.912.912,0,0,1,.651,1.092.9.9,0,0,1-1.092.647c-1.056-.268-2.216-.523-3.465-.775A.9.9,0,0,1,262.607,103.857Zm3.847,12.476a.9.9,0,0,1,.827-.905l3.579-.284a.9.9,0,0,1,.964.824.906.906,0,0,1-.82.964l-3.579.284a.9.9,0,0,1-.968-.824Zm3.072-10.587a.9.9,0,0,1,1.3-.811,6.391,6.391,0,0,1,2.814,2.965.9.9,0,1,1-1.6.8,4.635,4.635,0,0,0-2.017-2.164A.906.906,0,0,1,269.526,105.747Zm3.439,5.995a.9.9,0,0,1,1.785-.144,20.435,20.435,0,0,1,.219,2.775c0,.392,0,.726-.013.977a.9.9,0,1,1-1.791-.072c.007-.226.013-.526.01-.886a18.363,18.363,0,0,0-.2-2.523A.838.838,0,0,1,272.965,111.741Z" transform="translate(-75.492 -35.481)" fill="#fff"/>
          <path id="Trazado_3805" data-name="Trazado 3805" d="M158.181,100.368a.849.849,0,0,1,.01-.131,6.974,6.974,0,0,1,1.654-3.687.9.9,0,0,1,1.363,1.173,5.114,5.114,0,0,0-1.239,2.749.9.9,0,0,1-1.788-.1Zm.268,3.55a.9.9,0,0,1,1.768-.232,14.206,14.206,0,0,0,1.236,3.128.9.9,0,0,1-1.585.84,16.047,16.047,0,0,1-1.392-3.527A.92.92,0,0,1,158.449,103.918Zm3.249,6.348a.9.9,0,0,1,1.615-.549,34.764,34.764,0,0,0,2.249,2.677.9.9,0,1,1-1.314,1.222,35.852,35.852,0,0,1-2.37-2.824A.9.9,0,0,1,161.7,110.265Zm.791-15.245a.892.892,0,0,1,.5-.814,18.471,18.471,0,0,1,3.543-1.288.9.9,0,0,1,.454,1.739,16.572,16.572,0,0,0-3.2,1.154.894.894,0,0,1-1.2-.4A.833.833,0,0,1,162.489,95.021Zm4.063,20.527a.9.9,0,0,1,.239-.621.9.9,0,0,1,1.268-.046c.856.794,1.752,1.569,2.67,2.324a.9.9,0,1,1-1.141,1.386c-.945-.778-1.866-1.575-2.749-2.4A.886.886,0,0,1,166.552,115.548Zm2.831-22.423a.9.9,0,0,1,.778-.9c1.141-.15,2.367-.261,3.648-.327a.9.9,0,0,1,.941.85.912.912,0,0,1-.85.941c-1.232.065-2.409.17-3.5.317a.9.9,0,0,1-1.01-.771A.635.635,0,0,1,169.383,93.125Zm2.713,27a.892.892,0,0,1,.176-.546.9.9,0,0,1,1.258-.186c.961.719,1.932,1.409,2.9,2.066a.9.9,0,0,1-1.013,1.484c-.981-.673-1.974-1.376-2.958-2.108A.9.9,0,0,1,172.1,120.124Zm4.449-27.391v-.016a.9.9,0,0,1,.905-.892c1.2.01,2.415.049,3.631.114a.9.9,0,0,1-.1,1.794c-1.19-.065-2.376-.1-3.546-.114A.9.9,0,0,1,176.544,92.733Zm1.481,31.447a.883.883,0,0,1,.137-.487.9.9,0,0,1,1.239-.281c1.059.667,2.079,1.285,3.046,1.847a.9.9,0,1,1-.9,1.553c-.981-.572-2.027-1.2-3.1-1.879A.9.9,0,0,1,178.025,124.18Zm5.691-31.065a.919.919,0,0,1,0-.095.9.9,0,0,1,.977-.811q1.829.172,3.6.405a.9.9,0,0,1-.232,1.781c-1.157-.154-2.34-.288-3.537-.4A.9.9,0,0,1,183.715,93.115Zm.53,34.673a.873.873,0,0,1,.1-.428.9.9,0,0,1,1.213-.376c.657.346,1.255.647,1.781.9.438.209.9.409,1.376.6a.9.9,0,0,1-.667,1.667c-.516-.209-1.013-.425-1.487-.654-.543-.258-1.164-.572-1.84-.928A.9.9,0,0,1,184.245,127.789Zm6.648,2.69a.875.875,0,0,1,.033-.258.9.9,0,0,1,1.111-.615c1.095.314,2.249.6,3.429.863a.9.9,0,1,1-.389,1.752c-1.216-.268-2.4-.565-3.537-.889A.9.9,0,0,1,190.893,130.479Zm-.059-36.435a1.386,1.386,0,0,1,.013-.16.9.9,0,0,1,1.033-.735c1.252.206,2.445.431,3.563.66a.9.9,0,0,1-.36,1.759c-1.1-.226-2.272-.445-3.5-.65A.9.9,0,0,1,190.834,94.043Zm7.063,38.007a.98.98,0,0,1,.013-.167.9.9,0,0,1,1.039-.726c1.177.206,2.36.4,3.52.565a.9.9,0,0,1-.258,1.775c-1.18-.173-2.38-.363-3.573-.575A.9.9,0,0,1,197.9,132.051Zm-.036-36.536a.964.964,0,0,1,.029-.252A.9.9,0,0,1,199,94.638a23.644,23.644,0,0,1,3.5,1.285.9.9,0,0,1-.752,1.631,21.416,21.416,0,0,0-3.229-1.187A.893.893,0,0,1,197.862,95.514Zm6.5,2.968a.868.868,0,0,1,.144-.5.9.9,0,0,1,1.239-.268,35.11,35.11,0,0,1,2.981,2.157.9.9,0,0,1-1.124,1.4,33.318,33.318,0,0,0-2.827-2.049A.9.9,0,0,1,204.36,98.482Zm.647,34.618a.81.81,0,0,1,.007-.124.9.9,0,0,1,1-.778c1.245.157,2.442.291,3.556.415a.891.891,0,0,1,.794.99.9.9,0,0,1-.99.794c-1.121-.124-2.327-.262-3.582-.418A.894.894,0,0,1,205.007,133.1ZM210,102.911a.9.9,0,0,1,1.494-.68l1.1.99q.785.706,1.569,1.4a.9.9,0,0,1-1.187,1.347q-.789-.7-1.582-1.412l-1.1-.984A.893.893,0,0,1,210,102.911Zm2.151,30.993a.632.632,0,0,1,0-.111.9.9,0,0,1,.99-.794l.928.1a24.423,24.423,0,0,1,2.723.5.9.9,0,1,1-.409,1.745,23.031,23.031,0,0,0-2.523-.464l-.915-.1A.89.89,0,0,1,212.149,133.9Zm3.285-26.306a.9.9,0,0,1,1.441-.722,24.812,24.812,0,0,0,2.876,1.919.9.9,0,1,1-.883,1.566,26.9,26.9,0,0,1-3.082-2.059A.9.9,0,0,1,215.434,107.6Zm3.723,27.839a.952.952,0,0,1,.039-.271.9.9,0,0,1,1.118-.6c1.137.343,2.3.726,3.448,1.115a.9.9,0,1,1-.579,1.7c-1.128-.382-2.275-.758-3.389-1.1A.9.9,0,0,1,219.157,135.437Zm2.536-24.413a.948.948,0,0,1,.042-.281.9.9,0,0,1,1.128-.582,14.741,14.741,0,0,0,1.713.431q.789.152,1.667.3a.9.9,0,0,1-.3,1.772c-.6-.1-1.17-.2-1.706-.307a16.53,16.53,0,0,1-1.922-.484A.9.9,0,0,1,221.693,111.024Zm4.275,26.714a.828.828,0,0,1,.052-.317.9.9,0,0,1,1.151-.539c.977.353,1.9.7,2.733,1l.647.239a.9.9,0,0,1-.618,1.683l-.65-.239c-.827-.3-1.746-.644-2.723-.994A.9.9,0,0,1,225.969,137.738Zm2.778-25.381a.837.837,0,0,1,.013-.154.891.891,0,0,1,1.026-.742c1.147.183,2.34.379,3.563.6a.9.9,0,0,1-.32,1.768c-1.209-.219-2.4-.415-3.527-.6A.9.9,0,0,1,228.747,112.357Zm4.014,27.721a.793.793,0,0,1,.016-.173.9.9,0,0,1,1.046-.719c.154.029.376.078.654.141.65.144,1.644.366,2.844.552a.9.9,0,0,1-.275,1.772c-1.249-.193-2.281-.422-2.961-.575-.252-.056-.451-.1-.592-.124A.9.9,0,0,1,232.761,140.078Zm3.05-26.41a.931.931,0,0,1,.023-.209.9.9,0,0,1,1.072-.68c1.183.268,2.37.562,3.533.9a.9.9,0,1,1-.5,1.723c-1.131-.327-2.281-.615-3.429-.873A.9.9,0,0,1,235.81,113.668Zm4.05,27.44v-.036a.9.9,0,0,1,.918-.873c.268.007.536.007.811,0a18.206,18.206,0,0,0,2.605-.209.9.9,0,1,1,.281,1.772,19.426,19.426,0,0,1-2.867.232c-.3.007-.588,0-.876,0A.9.9,0,0,1,239.86,141.108ZM242.7,115.7a.871.871,0,0,1,.059-.337.9.9,0,0,1,1.164-.51,28.5,28.5,0,0,1,3.363,1.562.9.9,0,0,1-.869,1.572,26.387,26.387,0,0,0-3.148-1.464A.9.9,0,0,1,242.7,115.7Zm4.177,24.184a.9.9,0,0,1,.523-.827,9.108,9.108,0,0,0,2.68-1.84.9.9,0,1,1,1.268,1.268,10.883,10.883,0,0,1-3.2,2.2.9.9,0,0,1-1.19-.441A.958.958,0,0,1,246.875,139.882Zm2.033-20.651a.88.88,0,0,1,.212-.592.894.894,0,0,1,1.265-.1,13.546,13.546,0,0,1,2.553,2.837.9.9,0,1,1-1.491.994,12.03,12.03,0,0,0-2.223-2.465A.891.891,0,0,1,248.908,119.231Zm2.932,15.693a.919.919,0,0,1,.085-.389,13.317,13.317,0,0,0,.994-3.2.9.9,0,1,1,1.762.324,14.949,14.949,0,0,1-1.131,3.631.892.892,0,0,1-1.19.435A.9.9,0,0,1,251.84,134.924Zm.931-9.8a.9.9,0,0,1,1.765-.245,13.485,13.485,0,0,1,.451,3.354v.438a.9.9,0,0,1-1.794-.026v-.392a11.443,11.443,0,0,0-.389-2.9A.782.782,0,0,1,252.771,125.128Z" transform="translate(-135.83 -5.369)" fill="#fff"/>
        </g>
        <path id="Trazado_3806" data-name="Trazado 3806" d="M226.253,81.307v0a1.839,1.839,0,0,0-2.409-.948l-11.208,4.873a1.834,1.834,0,0,0-.948,2.406h0a1.837,1.837,0,0,0,2.406.948l11.208-4.87A1.835,1.835,0,0,0,226.253,81.307Z" transform="translate(-14.784 67.044)" fill="#ddb39e"/>
        <path id="Trazado_3807" data-name="Trazado 3807" d="M226.129,82.62h0a1.834,1.834,0,0,0-2.383-1l-10.381,4.233a1.833,1.833,0,0,0-1,2.386h0a1.829,1.829,0,0,0,2.383,1L225.125,85A1.833,1.833,0,0,0,226.129,82.62Z" transform="translate(-13.218 69.938)" fill="#ddb39e"/>
        <path id="Trazado_3808" data-name="Trazado 3808" d="M165.625,80.192a26.427,26.427,0,0,0-8.283,13.552c.013-3.788,2.229-7.175,4.38-10.29C162.716,82.016,163.9,80.46,165.625,80.192Z" transform="translate(-137.734 67.012)" fill="#1a1a1a" opacity="0.49"/>
        <path id="Trazado_3809" data-name="Trazado 3809" d="M156.612,81.506h0a1.833,1.833,0,0,1,2.406-.948l11.208,4.87a1.834,1.834,0,0,1,.948,2.406h0a1.834,1.834,0,0,1-2.406.948l-11.208-4.87A1.834,1.834,0,0,1,156.612,81.506Z" transform="translate(-139.733 67.499)" fill="#ddb39e"/>
        <path id="Trazado_3810" data-name="Trazado 3810" d="M156.158,82.82h0a1.838,1.838,0,0,1,2.386-1l10.378,4.236a1.833,1.833,0,0,1,1,2.383h0a1.837,1.837,0,0,1-2.386,1l-10.378-4.233A1.838,1.838,0,0,1,156.158,82.82Z" transform="translate(-140.724 70.392)" fill="#ddb39e"/>
        <path id="Trazado_3811" data-name="Trazado 3811" d="M155.887,84.112h0a1.839,1.839,0,0,1,2.37-1.043l8.809,3.422a1.837,1.837,0,0,1,1.043,2.366h0a1.832,1.832,0,0,1-2.367,1.043l-8.812-3.422A1.834,1.834,0,0,1,155.887,84.112Z" transform="translate(-141.313 73.26)" fill="#ddb39e"/>
      </g>
    </g>
  </g>
</svg>
